ply
format ascii 1.0
comment Quaternion surfels: position, rotation quaternion, scales, diffuse albedo, opacity
element vertex 457
property float x
property float y
property float z
property float rot_w
property float rot_x
property float rot_y
property float rot_z
property float su
property float sv
property float albedo_r
property float albedo_g
property float albedo_b
property float opacity
property float beta
property float shape
property float power
end_header
0.228044271 -0.422375917 0.00163357845  0.742475748 0.00450474303 -0.00147933071 0.669856191  0.162702262 0.443583101  0.368790865 0.295553386 0.203288108  0.326557696 0 0 0
-0.449489176 -0.35673818 0.000506706885  0.999762058 -0.000928835361 0.00795991998 0.0202905256  0.122351967 0.299037218  0.252681077 0.202186182 0.140603438  0.292458624 0 0 0
0.446782053 -0.367814749 0.000566335919  0.998720527 -0.00478474237 -0.00130628748 0.0503277481  0.111501537 0.295123041  0.249272212 0.199231327 0.136561975  0.311246961 0 0 0
-0.432529956 0.372419387 0.000381404068  0.993527234 0.00183718977 0.0069532888 0.113366328  0.166727424 0.216700703  0.249599636 0.201663345 0.143269718  0.347012758 0 0 0
0.277961135 0.407871753 0.00147943571  0.999985278 -0.000487031473 0.0047334535 0.0026342941  0.262319416 0.190140337  0.27103442 0.216870889 0.151077345  0.300849408 0 0 0
0.317297816 0.263201416 0.000942432613  0.992601097 -0.00787701178 0.0143213458 -0.120316528  0.252007246 0.186527103  0.280473948 0.223278329 0.152879342  0.288589209 0 0 0
-0.203342661 -0.088229306 0.403447747  0.232438445 0.629422307 -0.222737104 -0.707239866  0.0545234978 0.0748484358  0.151157796 0.185905322 0.183894411  0.691579163 0 0 0
-0.104255468 0.230764404 0.384651423  0.281041503 -0.756556034 -0.0327786505 0.589545786  0.0623365007 0.0440107286  0.184709534 0.246272311 0.244761482  0.850000739 0 0 0
-0.117531158 0.135799393 0.460802913  0.575131357 0.486994296 -0.46507585 0.464505166  0.0285534076 0.028011119  0.179093212 0.232276574 0.236542597  0.861311555 0 0 0
0.0104519762 0.407996625 0.385164171  0.244739875 0.472292274 -0.281640202 0.798574507  0.048579134 0.0313489139  0.137292773 0.184784412 0.18138063  0.667136312 0 0 0
0.206084639 0.119070411 0.374514431  0.843951762 -0.278329909 0.423070967 0.17688638  0.0370813683 0.0677064508  0.109113649 0.142476127 0.140368283  0.350123018 0 0 0
-1.5 2.59807992 1  0.564786792 0.783599734 0.209965006 0.151334226  0.00100000005 0.00100000005  1 1 1  1 -1000 0 500
-1.5 -2.59807992 1  0.151334226 0.209965006 0.783599734 0.564786792  0.00100000005 0.00100000005  1 1 1  1 -1000 0 500
3 0 1  0.413452506 0.573634923 -0.573634923 -0.413452506  0.00100000005 0.00100000005  1 1 1  1 -1000 0 500
0 0 3  -0 1 0 0  0.00100000005 0.00100000005  1 1 1  1 -1000 0 500
-0.235953212 -0.407735854 8.95797421e-05  0.735539675 -0.00262990687 -0.00308364606 -0.677469552  0.211652428 0.471907079  0.300481707 0.242218658 0.172481045  0.293376029 0 0 0
0.116833366 -0.0269945338 0.000940771191  0.570318222 -0.00158019771 -0.00393413147 0.821412921  0.236938655 0.18731454  0.257740617 0.210601389 0.139907137  0.317416996 0 0 0
0.48336792 -0.2952061 0.000183949072  0.707071722 -0.0195226073 -0.0176711194 0.706651449  0.165524051 0.0412277654  0.222994253 0.178077996 0.122118503  0.352173895 0 0 0
-0.376790583 0.470704854 0.00135694118  0.999950171 0.0076612113 0.000634515251 -0.00637158146  0.22639142 0.0727128386  0.22577548 0.181688234 0.127782837  0.342893034 0 0 0
-0.118193746 0.293112159 0.0771889165  0.142598674 0.872492731 -0.456620455 0.0995986611  0.0331386924 0.0547195002  0.0626686215 0.0456805564 0.0238152668  0.721058846 0 0 0
0.471594155 0.326680213 0.000338927348  0.734470487 -0.0167139135 -0.0161997639 0.678241372  0.228287712 0.0720942691  0.267167449 0.212348312 0.14461945  0.292696118 0 0 0
-0.268245071 -0.0409985036 0.353780508  0.195799708 -0.566404283 -0.348948598 0.720474601  0.090067938 0.080652155  0.145572528 0.185221061 0.1815743  1 0 0 0
0.263287336 -0.107670918 0.359471262  0.67464757 0.218023956 0.705127597 0.0105479285  0.06702701 0.0771948248  0.127187744 0.166080654 0.166240573  0.794207752 0 0 0
-0.454037815 0.181892097 0.000656091899  0.722428501 -0.00332549121 0.000530997349 -0.691437423  0.254481673 0.115686432  0.247018754 0.199222326 0.137814984  0.343154848 0 0 0
-0.477988452 -0.0588552952 0.00130271644  0.00258412166 -0.00803785212 0.00368838757 -0.999957621  0.0586099178 0.339238614  0.254777133 0.19930546 0.131392747  0.337706089 0 0 0
-0.00984435808 -0.0151538709 0.00013904518  0.967871368 0.000609061797 -0.000233128201 -0.251445353  0.196740329 0.224881381  0.227592438 0.202075064 0.150374979  0.331044942 0 0 0
0.343122691 -0.281725049 0.00144888216  0.965017021 0.00135265023 0.0149872871 -0.261755228  0.190874994 0.226910472  0.232426882 0.186906278 0.131170034  0.369326323 0 0 0
-0.198970973 0.444246531 -0.000588572118  0.56325531 -0.0067749247 -0.00383602106 0.826246321  0.0955929011 0.12494465  0.208794549 0.178037837 0.135037556  0.153254971 0 0 0
-0.372304887 -0.182257503 -0.000240847352  0.692551255 0.0024130824 -0.0032817903 0.721357226  0.316067308 0.217291802  0.211282328 0.190114334 0.15283677  0.366825312 0 0 0
-0.0161087736 -0.474696964 0.00251295464  0.999777079 0.00951614324 -0.00244969153 -0.0186891351  0.259303361 0.0706147403  0.315337449 0.249616608 0.163884953  0.260449767 0 0 0
0.277970254 -0.0987077653 0.00126461952  0.824621201 0.00232524564 0.00195942726 0.565677285  0.224743769 0.198984578  0.2618756 0.205154955 0.130297095  0.420741946 0 0 0
0.485841125 0.00738443062 0.000498586218  0.00386377308 -0.0396456718 0.000106732943 0.999206305  0.0340727195 0.103319891  0.221283421 0.180712402 0.127118811  0.327771932 0 0 0
-0.0103758601 0.431726277 0.00114508031  0.688209534 -0.00284969807 -0.00982498936 -0.725439966  0.124221146 0.222430229  0.218628824 0.167320669 0.100708097  0.419337422 0 0 0
0.483065844 0.196432546 -2.26847915e-05  0.72743392 -0.0325404927 -0.0281052198 0.684829354  0.160082921 0.0413063355  0.246505782 0.197509736 0.136878863  0.27809298 0 0 0
-0.063705571 -0.121903248 0.159272566  0.552026689 0.728802085 0.119477905 -0.387090743  0.0455407351 0.057962466  0.164034143 0.202883333 0.193064272  0.362522006 0 0 0
0.167822391 -0.216785967 0.23837097  0.619250774 0.589718401 0.517937362 0.0223969538  0.0694726482 0.078013286  0.204091966 0.260774136 0.25357163  0.976506352 0 0 0
-0.0498606861 0.160367653 0.194501758  0.61325115 -0.624538541 0.42731002 0.226452753  0.0742804408 0.0554872155  0.182418793 0.242950559 0.227109328  0.95914942 0 0 0
0.212765679 -0.158803523 0.205695078  0.487067014 0.648624301 0.51598382 0.2753416  0.0505190976 0.0595054999  0.161830932 0.222771063 0.221209899  0.821812987 0 0 0
-0.323299021 0.258533776 0.00070780504  0.448420346 -0.0151484711 0.00159223774 0.89369303  0.183963493 0.236217558  0.215212464 0.174232021 0.125531942  0.369286597 0 0 0
0.217075169 0.1141662 0.190335289  0.497077554 -0.315895081 0.798834443 -0.122425213  0.0472993143 0.0490427017  0.174482718 0.246445775 0.234525099  0.396686018 0 0 0
0.391223967 0.00313017773 -0.000322757172  0.68874824 0.0158517696 0.00495180441 0.724810362  0.147333324 0.112970389  0.193734005 0.160694614 0.123328477  0.351527691 0 0 0
-0.111949891 0.475288212 5.34227729e-05  0.998947918 0.0414239578 0.00725155184 -0.0182918254  0.194535747 0.0536373854  0.211109474 0.169523224 0.119369328  0.397091687 0 0 0
0.410387456 0.373534083 0.000286852301  0.700387597 -0.00238006306 0.0075422721 -0.713718951  0.208808541 0.142834947  0.244280115 0.19714272 0.136153966  0.299288422 0 0 0
-0.0375481546 -0.149884224 0.221800461  0.408766687 0.745858073 0.281931102 -0.443982482  0.0920403153 0.0774530545  0.150933757 0.206000045 0.199874178  0.353653699 0 0 0
0.178420559 0.106976077 0.426909387  0.425886601 0.433154762 0.53770262 -0.584699452  0.0813933164 0.0866821483  0.220285773 0.279236853 0.273253858  0.439544111 0 0 0
-0.0295845177 0.267925709 0.201050699  0.845657408 0.261902332 0.462501347 -0.0486142896  0.0402835086 0.0326357819  0.178183228 0.218865886 0.213009015  0.550512791 0 0 0
0.0106326854 -0.227696866 -0.000365380431  0.148192316 0.0058586942 -0.000321145577 -0.988941193  0.295675635 0.264258772  0.301550686 0.245680586 0.160595596  0.327092111 0 0 0
0.422615141 -0.142190069 -0.00116409827  0.646021426 0.0114909103 0.0187100414 0.763003469  0.2026757 0.146296158  0.190269142 0.15443407 0.111414112  0.404272556 0 0 0
0.174329832 0.0473705083 0.457658231  0.450146645 -0.284528852 0.755642653 -0.381333917  0.0545557439 0.0412583724  0.155219421 0.195677683 0.195715368  0.654183507 0 0 0
0.118539341 0.350749582 0.00245974166  0.396611601 -0.00622128928 -0.00259981235 -0.917961836  0.20160228 0.259315938  0.222622782 0.177951083 0.117722444  0.356305122 0 0 0
-0.0298385657 0.285393357 0.227499366  0.535379291 -0.191008016 0.579025328 -0.58447814  0.0654228851 0.0593736544  0.166053832 0.217199117 0.215484917  0.569505811 0 0 0
0.254768968 0.114671163 0.271933049  0.550807536 0.0816246271 0.827851415 0.0679014474  0.106986985 0.0967140198  0.156953767 0.207841486 0.218842953  0.57619077 0 0 0
0.194392458 -0.254298687 0.00253484794  0.849803448 -0.00122217881 0.000623204745 0.52709794  0.226420015 0.186220974  0.280254096 0.220564291 0.141443163  0.324738711 0 0 0
0.452736735 0.0611321703 -0.000962787948  0.0277377628 -0.0191314761 0.00697777793 -0.999407768  0.0785422623 0.128272802  0.186989218 0.149715737 0.104360886  0.380176932 0 0 0
0.151148796 0.475255728 0.0013216699  0.999931633 -0.0095833838 -3.37925558e-05 -0.00670510856  0.253076762 0.0593538582  0.274720609 0.22464323 0.159111515  0.290522516 0 0 0
0.362558842 0.478985071 0.00131537521  0.999967456 -0.00445253495 0.000200435141 0.00672216108  0.158442631 0.0478001051  0.283221632 0.220463023 0.144632444  0.254675359 0 0 0
0.412807941 0.152520418 -0.000583103334  0.733620763 0.000440583972 0.005972201 0.679532766  0.210927099 0.145703077  0.219533533 0.178593293 0.129626021  0.357657373 0 0 0
-0.127636284 -0.0925439298 0.152747899  0.193944678 -0.0709975213 -0.772588432 0.600376606  0.117766231 0.0808724165  0.154426768 0.24153991 0.250685602  0.603670895 0 0 0
0.0439102463 0.220801011 0.399278998  0.0154808369 -0.823266804 0.0147481095 -0.567251921  0.159417093 0.100419424  0.152998641 0.203863323 0.208330721  0.434562773 0 0 0
-0.174979493 0.123060815 0.00172200019  0.985722005 0.00856741518 -0.0014383879 -0.168156937  0.298308998 0.222748667  0.254061937 0.203347415 0.129431978  0.388005316 0 0 0
0.123151757 -0.196847051 0.150843203  0.391097248 0.460322231 0.752482295 -0.262520134  0.0855567753 0.122951038  0.147856504 0.207990572 0.206710517  0.479216129 0 0 0
-0.169339344 -0.155711845 0.477777869  0.651813388 0.632518768 -0.181380495 -0.377041787  0.063893877 0.0413861945  0.172469527 0.208371446 0.203535244  0.340362072 0 0 0
-0.132794693 0.114365116 0.243984252  0.657645702 -0.376020104 -0.652652085 0.0125045432  0.074517332 0.0919948444  0.168922916 0.227170959 0.225533873  0.461280823 0 0 0
0.0268921684 0.416013092 0.418920904  0.511968493 0.622860432 0.362901241 0.467157334  0.0467491448 0.0331518352  0.166114062 0.20827885 0.203825206  0.784226239 0 0 0
0.198664188 0.208448038 0.28618148  0.68831569 -0.627518117 0.287576377 -0.223029941  0.132321805 0.108503416  0.138634995 0.197275206 0.193525434  0.532087386 0 0 0
-0.191914558 -0.103403948 0.282416075  0.610925734 0.757465363 -0.150779903 -0.174015343  0.0648090914 0.0584447458  0.182949364 0.239485726 0.235831231  0.692635417 0 0 0
0.244519487 -0.141544178 0.334181964  0.509093821 0.690104663 0.187661693 0.478917718  0.070524089 0.0563209057  0.15195173 0.188949287 0.1826507  0.997342288 0 0 0
-0.108915888 0.122869879 0.181958735  0.755924642 0.480997503 0.328916878 0.29838416  0.174546644 0.109001644  0.172211945 0.232627615 0.226255342  0.489809722 0 0 0
-0.287279785 0.0496613868 0.292630017  0.115563929 -0.690619171 -0.0788286701 -0.709560513  0.13137874 0.0743150115  0.166244462 0.239072412 0.233710691  0.315975547 0 0 0
0.114528246 0.185287476 0.481935978  0.306167036 -0.289855689 -0.41617763 0.805631161  0.0806455538 0.0147844199  0.167731732 0.238249704 0.233711168  0.434746325 0 0 0
-0.265529007 -0.0651366189 0.27008611  0.250643194 0.584049106 0.527116537 -0.564103544  0.0900331661 0.0716608241  0.157291204 0.211374968 0.20892942  0.553464651 0 0 0
-0.152469561 0.107561931 0.351646394  0.215879381 -0.763352096 0.0642163455 0.605446815  0.0931917727 0.0782310069  0.167700633 0.215436503 0.212141156  0.87290448 0 0 0
0.125330284 0.11593429 0.470136166  0.713129759 0.64700371 0.164264038 -0.214125335  0.0796684623 0.0533883013  0.194692373 0.232317761 0.229012296  0.580103099 0 0 0
0.244521096 -0.144852147 0.239831716  0.611571848 -0.601632774 0.446746439 -0.253841609  0.0593527369 0.102073245  0.188895598 0.249282509 0.244182661  0.514251232 0 0 0
-0.0155255152 0.18838428 0.147601217  0.95261234 0.11099121 -0.145403966 0.243040025  0.137364015 0.140087858  0.0846428126 0.184372351 0.22252585  0.397531539 0 0 0
-0.230651662 0.110037193 0.173628226  0.169694915 0.57989198 -0.701890588 -0.377198458  0.104604781 0.132283315  0.15266788 0.246704832 0.262747049  0.52435869 0 0 0
-0.0859910399 -0.15168266 0.284886152  0.594952643 0.735003591 -0.325209111 0.0063327793  0.0930283815 0.0869982764  0.16145876 0.21107924 0.206612155  0.610775292 0 0 0
-0.0356148928 0.373519361 0.355861098  0.55343008 0.387524605 0.6511994 0.345657825  0.0659837425 0.0914860815  0.139210626 0.195376337 0.190472618  0.73630774 0 0 0
0.268841743 0.0611456968 0.300700814  0.050651487 -0.856669128 0.0187663734 -0.513030529  0.0688732341 0.0618345812  0.157859743 0.192527935 0.187817678  0.873158932 0 0 0
0.0746607333 0.11687123 0.427157551  0.0289950855 -0.041341912 -0.674567759 0.736483932  0.137611568 0.116165735  0.193206608 0.244769946 0.239831671  0.509009421 0 0 0
-0.0519044697 0.230485588 0.20107691  0.773154378 0.385428458 0.482571393 0.14422898  0.114076905 0.0797380656  0.196092218 0.249740735 0.238751829  0.487371981 0 0 0
0.220744625 0.0113692675 0.184535116  0.260012478 -0.749839723 0.351425439 -0.496622771  0.0486125946 0.0411971435  0.191610098 0.226945862 0.217121303  0.326573074 0 0 0
-0.0153750526 -0.18356882 0.295563191  0.595563054 0.785709918 -0.0891438723 -0.141485259  0.0722717568 0.0810562372  0.19318375 0.248897925 0.245675728  0.861740649 0 0 0
-0.147633776 0.122170202 0.360577464  0.019838471 -0.707518041 0.295052618 0.641847789  0.0882352218 0.0766245425  0.180652037 0.23736845 0.233935818  0.453826487 0 0 0
0.210025236 0.127488136 0.433795542  0.310460329 0.713502109 0.298386812 0.552715659  0.046406094 0.0233854111  0.130628735 0.168414995 0.164499328  0.427862108 0 0 0
-0.0363435894 0.299058437 0.26554805  0.666671574 0.540385664 0.279202253 0.430788368  0.0740764737 0.0577073246  0.149390191 0.197985649 0.19376196  0.536791682 0 0 0
0.155636817 0.14271988 0.141083017  0.311312854 -0.919589043 -0.239651933 -0.00269399816  0.0784485117 0.0555869304  0.104725868 0.203101948 0.226011559  0.247552678 0 0 0
0.453955024 -0.0431684181 -0.000972903741  0.999587476 0.00443805335 -0.0233800877 -0.0160828214  0.0879854411 0.137351036  0.177033573 0.141496554 0.0987731516  0.416277051 0 0 0
0.462806106 0.464574724 0.00135676085  0.870424569 0.00323796738 0.00425090641 -0.492272943  0.0843298063 0.094639428  0.236798763 0.18816039 0.128255203  0.363716334 0 0 0
-0.228987932 -0.0689099729 0.22593531  0.212907374 -0.0543512292 -0.79395926 0.566873133  0.118312009 0.103471205  0.178610653 0.235664248 0.233505979  0.513073802 0 0 0
-0.155260056 0.122605473 0.427916408  0.668560565 -0.413957745 -0.600512028 0.145089865  0.1259581 0.0854335204  0.169097707 0.21012491 0.205314547  0.833292186 0 0 0
0.0456878506 0.124666497 0.481313378  0.756896496 0.652158439 -0.0344312452 -0.0247308146  0.0957669541 0.0533958524  0.246465623 0.284933925 0.279997677  0.500042796 0 0 0
0.174155399 -0.224678844 0.280725986  0.15836814 0.649946392 -0.404708445 0.623458385  0.0953808427 0.100374103  0.170446843 0.227165177 0.223834008  0.653881431 0 0 0
-0.346178621 0.0696735978 0.00162451679  0.839757621 0.00894002337 -0.00679125823 -0.542845488  0.256770641 0.17932044  0.235850483 0.186467111 0.12212453  0.36001873 0 0 0
-0.0337585844 0.128815696 0.42267713  0.392169446 0.292364269 -0.61823827 0.615229905  0.0888561159 0.107028574  0.251883328 0.347195327 0.350710362  0.280393392 0 0 0
0.192327186 -0.0839576274 0.362076998  0.175621867 0.525294662 0.353725374 0.753724635  0.022892978 0.0286923815  0.163874805 0.20729439 0.202801406  0.422078371 0 0 0
0.268197179 0.0847972408 0.000795548083  0.701459944 0.00470104115 0.00818824209 0.712646365  0.234444916 0.198050126  0.272759527 0.214699164 0.136098191  0.441114128 0 0 0
0.0752825066 -0.21455957 0.283449799  0.432563007 0.8219679 0.140067741 -0.3429856  0.0731213838 0.0611308813  0.130129054 0.209538877 0.223533437  0.51743269 0 0 0
-0.184525952 0.0374923199 0.45957756  0.593892157 -0.544203222 -0.41497159 0.423005521  0.0779310763 0.0580010675  0.223443747 0.269225955 0.260932952  0.99408865 0 0 0
0.236876741 0.00562712131 0.219849825  0.529277325 0.202844158 0.812603354 0.135630235  0.0673293993 0.0607386865  0.156918705 0.208503962 0.20687297  0.51355356 0 0 0
0.22820051 0.0830627754 0.205664515  0.476582348 -0.382676929 0.760591626 -0.21892485  0.0526374392 0.052945435  0.178976282 0.237834036 0.23360166  0.923462808 0 0 0
0.15964362 0.0875332728 0.465689421  0.664163649 0.503067493 -0.452006638 -0.318590313  0.0515493639 0.0469003059  0.16549243 0.197793826 0.195976034  0.664404392 0 0 0
0.486837357 -0.0963887423 0.000626227295  0.0311412346 -0.0348970294 0.0168023221 0.998764277  0.0317952596 0.10654553  0.195294529 0.158378333 0.109299228  0.383949965 0 0 0
-0.156668544 -0.040670462 0.12015672  0.0902744234 0.855651438 0.424543589 -0.281911135  0.078699857 0.0901040435  0.0787723511 0.192552015 0.242145419  0.271515846 0 0 0
-0.190313503 -0.11974147 0.46352151  0.660726964 0.013257131 -0.677081764 0.323766083  0.0753653497 0.0897431746  0.158997312 0.200866312 0.196182042  0.590504944 0 0 0
0.16271919 0.10234376 0.36327678  0.40113762 0.346514136 -0.565010548 0.632281303  0.0435708538 0.0390195623  0.187684774 0.263493896 0.256679326  0.468630999 0 0 0
0.186040416 -0.102886349 0.403630465  0.00330377626 -0.685950816 -0.160957873 -0.709614873  0.032566756 0.0490546301  0.162717834 0.21334219 0.213329375  0.502291858 0 0 0
-0.285538435 0.0318954289 0.309438974  0.456519037 0.635091543 -0.331465632 -0.527616918  0.0850914642 0.10882806  0.179384589 0.244137704 0.242056549  0.320386052 0 0 0
-0.196148142 -0.129979089 0.396488249  0.360333443 0.671787322 0.359828472 -0.53794533  0.0870941728 0.0793992132  0.189164743 0.232676163 0.226970702  0.517720342 0 0 0
-0.159049749 0.114550538 0.451520473  0.5359357 0.238558903 -0.656008184 -0.474885225  0.111790873 0.0406496786  0.171086103 0.207081199 0.202493966  0.560208321 0 0 0
0.234989673 0.12254668 0.228876382  0.173030376 0.766308546 0.328407347 0.52438575  0.110456288 0.0864208862  0.163265169 0.207417309 0.198569894  0.374516279 0 0 0
-0.230916068 -0.0523870513 0.193137184  0.526616991 0.388712734 -0.738553345 0.161604345  0.0579239205 0.0540327318  0.140564486 0.183506653 0.177704304  0.760416865 0 0 0
-0.0161091629 -0.20131062 0.354000628  0.555222094 0.804886162 -0.00355818868 -0.209461287  0.0982372016 0.0875401199  0.156269372 0.202103361 0.203450486  0.669236183 0 0 0
0.201854661 -0.0524460226 0.484569728  0.218302533 -0.732720971 0.133407176 -0.630608082  0.0327886194 0.0315299407  0.134774134 0.170489892 0.167133778  0.700810611 0 0 0
-0.187346548 -0.103919819 0.307644576  0.395710796 -0.31289646 -0.641910613 0.577459514  0.0550014749 0.0446818322  0.170470253 0.219353974 0.214484975  1 0 0 0
-0.236465544 0.0383193605 0.299848258  0.49179548 -0.50633657 -0.637686312 -0.30840984  0.0771144703 0.0546138436  0.172991022 0.209420636 0.207269773  0.770694613 0 0 0
0.0172267053 0.322796166 0.245876789  0.334276855 -0.0261782333 0.557963192 -0.759111941  0.039087411 0.0137079395  0.160542458 0.191327423 0.187517092  0.359499305 0 0 0
0.24319613 0.0946344212 0.203611195  0.609231055 0.427590191 0.658798039 0.10949643  0.0659821779 0.0827399343  0.194636106 0.248982728 0.24316898  0.46075657 0 0 0
-0.209872678 0.0109823849 0.475298494  0.584782064 0.368936568 -0.642462254 -0.330390871  0.0739357769 0.0559162684  0.168693274 0.21052511 0.207582206  0.609473348 0 0 0
0.111910932 -0.271492749 0.270808637  0.271302789 -0.0514637381 0.686939895 -0.672205269  0.055438187 0.0664100125  0.12301074 0.220891073 0.215201765  0.949132562 0 0 0
0.15917784 -0.159387186 0.131227478  0.131841943 0.76967746 -0.407039732 0.473849058  0.0350713395 0.0418431014  0.178722769 0.19773908 0.183026195  0.587539911 0 0 0
0.00898659509 0.502282739 0.489306241  0.643258274 -0.130198911 0.742802143 0.132333159  0.0130243385 0.0389226042  0.150355965 0.182282433 0.176139191  0.615665734 0 0 0
-0.025001239 -0.144941121 0.188915655  0.611738086 0.74167031 -0.27005133 -0.0526690856  0.0353027545 0.0512126908  0.219149098 0.262916088 0.246472865  0.329620898 0 0 0
0.245035037 -0.132687792 0.283626318  0.607326686 0.00249350886 0.761657834 -0.225888237  0.0711802021 0.0833019987  0.137634784 0.181839168 0.17928867  0.745440483 0 0 0
-0.0725731999 0.236008808 0.27721417  0.734267712 0.0463727824 0.59925741 -0.315580636  0.12893337 0.0982052088  0.179368675 0.232446343 0.232184425  0.620615304 0 0 0
0.192463994 -0.213818714 0.32749936  0.585159898 0.673633575 0.133627787 0.431218535  0.0492916666 0.0694325864  0.197376236 0.244199738 0.236795306  1 0 0 0
0.227689639 0.088023603 0.324834406  0.623408914 -0.419578522 -0.486547291 -0.445631087  0.0397243313 0.0298019014  0.19142729 0.26315406 0.26124078  0.508431077 0 0 0
0.23099643 -0.181408092 0.414458096  0.220355704 0.556501508 -0.135179862 0.789604962  0.058981657 0.0747927725  0.0752198771 0.100739866 0.101336204  0.305695802 0 0 0
0.177348599 -0.189021707 0.187393963  0.14790602 0.72353518 -0.380156487 0.556867719  0.0654482692 0.0461911708  0.201057449 0.274081707 0.270412952  0.570371449 0 0 0
-0.277695298 0.0306425672 0.217461914  0.358988523 0.751871407 -0.159809619 -0.529412508  0.0697126314 0.0407076925  0.14696914 0.209537774 0.206852511  0.924795449 0 0 0
-0.180758297 0.0469275713 0.404558182  0.560387492 0.545543134 0.38762176 0.487952828  0.0790218562 0.0483135283  0.210230201 0.25652349 0.249011323  0.940599978 0 0 0
-0.157001451 -0.0990776718 0.166103736  0.172128439 0.26014924 -0.803728282 -0.506670654  0.0637533367 0.0762029961  0.120343737 0.174408212 0.189921707  0.310121655 0 0 0
0.0644872934 -0.202738389 0.268174469  0.087889418 0.453768075 0.654565752 -0.598258913  0.0384735912 0.0346795581  0.131365493 0.194822118 0.198035836  0.22941412 0 0 0
0.24030593 -0.102427594 0.247475058  0.132004097 -0.781214535 0.276424259 -0.543937922  0.0473661795 0.0407749116  0.153167903 0.188601092 0.1838184  0.38244614 0 0 0
-0.253698975 -0.0860440284 0.377041548  0.724223375 0.286397189 -0.627210319 -0.00918543991  0.0597776808 0.0560931563  0.137116715 0.17803748 0.176470265  0.767219961 0 0 0
-0.0817465782 0.265491128 0.358858645  0.714351058 0.511407554 0.342547983 0.332905084  0.032178767 0.0414336473  0.170703441 0.208615586 0.20407255  0.491624981 0 0 0
0.0436904058 -0.231892094 0.365650535  0.407238841 0.323213816 -0.73925972 0.42800048  0.0458763354 0.0187245887  0.163273767 0.209909335 0.201464802  0.467924893 0 0 0
0.107622728 0.209947839 0.188167021  0.40136373 -0.915133536 -0.0374396481 -0.00600638194  0.101792097 0.0795405358  0.108735152 0.162330478 0.178759143  0.707207501 0 0 0
0.218297631 0.113324977 0.384847134  0.100631997 -0.276551127 0.711745799 -0.637817144  0.04732012 0.089947015  0.226388559 0.287601262 0.282039076  0.653547943 0 0 0
0.269452184 -0.0547303967 0.317251503  0.137567058 -0.698446274 0.321775645 -0.624266446  0.064729467 0.0728026107  0.123526782 0.154586449 0.149698317  0.91173625 0 0 0
0.223898128 -0.173417255 0.341221064  0.738837957 0.445863217 0.503430009 0.0433912426  0.073273778 0.0389418863  0.150251538 0.2000269 0.197568327  0.685646832 0 0 0
0.215607896 0.00807286054 0.485938489  0.505344212 0.11472445 0.831813157 -0.198878035  0.0169933867 0.0488221236  0.16536358 0.201522991 0.19659318  0.70848459 0 0 0
0.208649248 0.101043336 0.169532776  0.416574389 -0.590744376 0.616168737 -0.312766761  0.0978716388 0.0860443413  0.140539184 0.204166859 0.202712536  0.692997336 0 0 0
-0.201807424 -0.0607540011 0.150822207  0.528102994 0.468956828 -0.663027525 0.248156011  0.0544414818 0.0823715404  0.137119159 0.248812959 0.269167006  0.444212705 0 0 0
-0.136664659 0.164480805 0.423053175  0.213214159 0.555568159 -0.476294965 -0.647322893  0.0988497511 0.0797957256  0.187010005 0.245699301 0.245744005  0.381483883 0 0 0
0.206800282 0.0814577788 0.416562229  0.673597217 0.735144794 0.0322758518 -0.0691902116  0.0181469712 0.0295196734  0.192061841 0.25272423 0.245928481  0.910100996 0 0 0
0.209575176 -0.0848014206 0.167770058  0.521428168 0.309532374 0.780538797 0.15186058  0.127653927 0.0919282287  0.161882535 0.233906999 0.238303006  0.472473741 0 0 0
-0.203699157 -0.0640286878 0.432438403  0.0158742443 -0.744421721 0.00248418376 0.667516351  0.0433167703 0.0396462828  0.197823569 0.250938088 0.244491428  0.413330674 0 0 0
0.0268054418 -0.212160587 0.335757375  0.293066055 0.660561085 0.48712489 -0.490388423  0.036369361 0.0352506153  0.146917194 0.189980224 0.185300335  0.612381101 0 0 0
-0.202248439 -0.0380338244 0.47175017  0.55018568 -0.496538609 -0.480410039 0.4689897  0.0646121427 0.0578062534  0.186278999 0.232245281 0.228516653  0.631489456 0 0 0
0.257976949 -0.105183415 0.312096387  0.142788425 -0.679972351 0.340239406 -0.633629382  0.0837336183 0.0666204765  0.147521585 0.19232446 0.185695007  0.6601969 0 0 0
-0.24280709 -0.01346232 0.43724522  0.776375055 0.250054836 -0.420678079 -0.397170395  0.0495047793 0.0523861609  0.098791495 0.140617713 0.148547843  0.354513168 0 0 0
-0.0628847927 -0.19789955 0.417283297  0.582861722 0.744770944 0.0852791965 -0.31355378  0.0770147666 0.0652813315  0.215846255 0.274837464 0.273041725  0.379764438 0 0 0
-0.0538840592 0.29766199 0.317144692  0.786986291 0.325443894 0.521792293 0.0497168191  0.111895204 0.0933710262  0.146173388 0.183939129 0.181297258  0.587982059 0 0 0
0.192106143 -0.132113323 0.148370668  0.658351421 0.246054396 0.710930109 -0.0246810224  0.0230992455 0.0303317104  0.111770138 0.175869375 0.179962143  0.590507805 0 0 0
-0.181115806 -0.171862006 0.20303078  0.162809432 -0.834080994 -0.0925541744 0.518879354  0.175554752 0.0879331902  0.296466231 0.437704146 0.437991619  0.670575202 0 0 0
-0.0463979505 -0.217383355 0.478956103  0.577150106 0.483826876 -0.596353531 0.277798295  0.0441410355 0.0775326639  0.200001344 0.255200386 0.252598852  0.37711516 0 0 0
0.0859235525 -0.130651459 0.463823915  0.42789349 0.806866348 -0.0640088394 0.402214646  0.0229605362 0.0166523382  0.145875812 0.174548164 0.171648219  0.690764308 0 0 0
0.0882883519 0.122780129 0.496108115  0.541052043 0.503781974 0.410948783 -0.533467472  0.0402503163 0.0574752018  0.212578401 0.25249359 0.248199597  0.617197275 0 0 0
-0.205553442 -0.109760255 0.432755649  0.387080282 0.538092971 0.188285425 -0.72468847  0.0292278007 0.0388941802  0.168519765 0.210695326 0.204675198  0.257333726 0 0 0
0.0468998477 -0.161975145 0.480802894  0.264576316 0.713379562 -0.40873602 0.504007697  0.0455495901 0.11783348  0.198441967 0.238620132 0.235133052  0.432778001 0 0 0
-0.164486378 0.0920298845 0.143235147  0.239327356 0.188550442 -0.894906819 0.326056659  0.132062912 0.0881022066  0.119801953 0.18737413 0.20046699  0.490221292 0 0 0
0.0274043847 -0.254429907 0.186295614  0.347689688 0.720419943 -0.500802577 0.330611408  0.0830663815 0.118189745  0.18847543 0.306955159 0.318490654  0.597414494 0 0 0
-0.124304898 0.179285899 0.373098224  0.418339729 0.348041415 -0.672381818 -0.501758695  0.0839904994 0.0652655289  0.185057864 0.238770053 0.234305203  0.382181615 0 0 0
0.103170782 -0.199246585 0.161111519  0.227771059 0.538080037 0.622205615 -0.521008968  0.0641787872 0.0477953628  0.139031038 0.236984655 0.241218105  0.204796135 0 0 0
-0.192077413 0.000740541087 0.410898954  0.542577922 -0.558390558 -0.481141537 0.402879685  0.123181321 0.0930498168  0.278349787 0.352572262 0.34740296  0.371750951 0 0 0
0.188729733 -0.104613222 0.490502387  0.272645384 -0.416807532 0.629639506 -0.59623003  0.0351234972 0.0187991913  0.1561196 0.195401341 0.191765532  0.605771005 0 0 0
-0.00386897987 0.357198119 0.292155147  0.011412628 0.392199159 -0.407172978 0.824778616  0.06010608 0.0584808253  0.135673985 0.188018396 0.186632723  0.394227237 0 0 0
-0.19734776 -0.1245111 0.371883541  0.528220713 0.347916573 -0.682091832 0.366998345  0.0580655634 0.0497966968  0.164265096 0.204629824 0.199584335  0.627869725 0 0 0
-0.00484134397 -0.223445922 0.410531819  0.450906664 0.83482635 0.0994021222 -0.299778879  0.0493535139 0.0342158377  0.138432309 0.183227614 0.18675518  0.238820031 0 0 0
0.235363007 -0.102733351 0.233563155  0.104128525 -0.801093459 0.212477028 -0.549781859  0.0633310527 0.0754873157  0.150951996 0.204432815 0.204424143  0.787306905 0 0 0
-0.0809357613 -0.198076561 0.450060636  0.0496636294 0.349042356 0.659101009 -0.664295733  0.0518834665 0.0524290353  0.170239031 0.217139602 0.215153009  0.111188397 0 0 0
0.186710358 -0.145871907 0.407510072  0.609223783 0.371861577 0.517573655 -0.471892893  0.0320505947 0.0255392138  0.201082096 0.233154714 0.228485674  0.705801964 0 0 0
0.209912136 0.0635920167 0.165859312  0.507196903 0.180714414 0.829745293 0.147025242  0.0517788865 0.0504583344  0.189090878 0.243088573 0.233797342  0.460017145 0 0 0
-0.0232561342 -0.221121997 0.314903855  0.493155986 0.793870628 0.118946195 -0.335288703  0.0464113727 0.0500880592  0.120533861 0.155326515 0.149882972  0.35813877 0 0 0
0.196130916 0.0944255739 0.48709017  0.427134871 0.545814335 0.686591268 0.219624519  0.0427869596 0.0240435395  0.144671381 0.185606048 0.180927366  0.496684372 0 0 0
-0.0841160044 -0.181862205 0.374336571  0.256709009 0.572020054 0.552385628 -0.549330294  0.0570843071 0.0639998093  0.18280445 0.231033549 0.230481774  0.5544011 0 0 0
-0.0386395119 -0.234209791 0.363789797  0.466660082 0.825900614 0.0564743727 0.311331451  0.136031076 0.0718661696  0.260993987 0.349387348 0.349161088  0.601159453 0 0 0
0.0142468233 0.427073121 0.460881948  0.623393357 -0.140336961 0.750902355 -0.166829228  0.0578669123 0.0445045121  0.178721249 0.228696346 0.225408688  0.471805781 0 0 0
-0.132635564 -0.172578067 0.469875783  0.645942211 0.696901798 -0.10640581 -0.292855799  0.0359340347 0.0460447669  0.138210684 0.174771219 0.170927927  0.618436992 0 0 0
0.201967016 -0.103086069 0.352562696  0.666950583 -0.453620076 0.386104703 -0.447581321  0.04342876 0.0435191132  0.179957569 0.233141989 0.228130043  0.450150281 0 0 0
0.214327306 0.061189644 0.174971387  0.494026393 -0.383895427 0.750196397 -0.21393396  0.0864166617 0.0813517123  0.156192869 0.206174672 0.200794309  0.662863851 0 0 0
-0.069488503 0.0727101937 0.126080364  0.0950044692 0.913327277 -0.394042075 0.0392225832  0.0946020931 0.112760633  0.0431614257 0.147995025 0.198615342  0.283952653 0 0 0
0.231244728 -0.16529128 0.32414794  0.600606859 0.00196800474 0.69511795 -0.39506799  0.0688081384 0.0614207648  0.172143891 0.217413262 0.208951265  0.891311407 0 0 0
-0.269544691 -0.0547613017 0.319663674  0.585163176 -0.243543819 -0.643664896 0.42891258  0.0316819139 0.0372218825  0.194095612 0.253453553 0.247486115  0.526627541 0 0 0
0.0154439965 0.400714219 0.363874912  0.504911482 0.577315748 -0.247513771 0.592037141  0.0441316515 0.0311524011  0.117100656 0.151253268 0.147500664  0.594239533 0 0 0
0.184158593 -0.174197406 0.413169682  0.511126876 0.0465792827 0.673520803 -0.531930029  0.124611281 0.112939149  0.183292612 0.235893935 0.232160866  0.506875157 0 0 0
-0.0250855405 0.380269617 0.391806364  0.587261617 -0.562771678 -0.576365232 -0.0788349882  0.0598370805 0.0305825714  0.129782379 0.172225937 0.171686023  0.598088324 0 0 0
0.239364639 0.160133943 0.247668386  0.612636328 -0.197325125 0.73253423 0.221660048  0.0813062713 0.100012891  0.145036668 0.21379751 0.208779469  0.775998771 0 0 0
-0.177120164 0.0243418068 0.176610336  0.105589345 0.471991181 -0.29872939 0.822700441  0.111019015 0.087182261  0.177255541 0.265241116 0.277927458  0.459958404 0 0 0
0.0321814157 0.205090195 0.174961001  0.21589677 -0.608515561 0.523700714 0.55572921  0.0478404723 0.0456320047  0.1622006 0.212766379 0.199735746  0.722084939 0 0 0
0.0720015988 0.212719351 0.475235462  0.227960691 -0.761753857 0.142194092 -0.58953023  0.0467732549 0.0240000654  0.169144496 0.203161165 0.197645396  0.713402331 0 0 0
-0.022397127 -0.232739478 0.385307133  0.0765723288 0.621892095 -0.561333954 0.540639579  0.045184534 0.054218635  0.278589964 0.357181996 0.353752136  0.610380471 0 0 0
0.00211330131 -0.218794644 0.386174798  0.532214046 0.579328537 -0.578868628 0.214564592  0.0607417412 0.0550088994  0.166216761 0.208438456 0.202967763  0.666047215 0 0 0
0.124167964 0.269161105 0.305644304  0.456148803 -0.699784815 -0.229842231 -0.499401689  0.0650729686 0.048424691  0.103954978 0.170231894 0.162932038  0.918709874 0 0 0
-0.010699586 -0.0117721604 0.538967848  0.265870899 -0.0986656621 -0.735109985 0.615784943  0.0862646997 0.113951989  0.164771348 0.223579779 0.22134839  0.489866167 0 0 0
-0.0816607848 0.29445225 0.393537432  0.144023865 -0.0968620554 0.427763194 -0.887070179  0.0501878001 0.0298471302  0.126723573 0.162172347 0.161409691  0.37292996 0 0 0
0.253418624 -0.0447998904 0.266762346  0.555239737 0.206594855 0.798210502 0.109028704  0.0938470215 0.114250772  0.133822456 0.178904757 0.17479147  0.690563858 0 0 0
-0.177967101 0.040305946 0.357945561  0.678235173 -0.216177419 -0.701834559 0.0263177324  0.0688875243 0.0575115085  0.188814834 0.241491333 0.240043014  0.286051452 0 0 0
-0.0858489797 0.221831709 0.297675788  0.172832519 -0.46339798 0.372714311 -0.785159469  0.0836877301 0.0734543428  0.160012513 0.20425801 0.199922904  0.545310318 0 0 0
-0.172554553 -0.144010261 0.430292577  0.405638993 -0.0552288257 -0.697924316 0.587629616  0.0530861542 0.0393290035  0.171196371 0.211988166 0.207635909  0.832317233 0 0 0
0.157266751 -0.230338618 0.246524423  0.504145086 0.777318954 0.125860587 0.354643703  0.109761804 0.126302943  0.2021254 0.301455617 0.299279958  0.680951297 0 0 0
0.0353857242 0.0786097124 0.127458543  0.0436438508 0.656659663 -0.74842906 0.0821420401  0.0899283439 0.0998912677  0.0578777082 0.168474495 0.219704658  0.309873253 0 0 0
-0.000404974009 -0.0115598692 0.143430054  0.085650146 0.905703187 -0.412639946 0.0457623005  0.09248925 0.121924125  0.0645752251 0.117385738 0.134712666  0.683978677 0 0 0
0.00638971152 0.365390897 0.29654634  0.560916066 0.536943555 -0.0991567746 0.62228024  0.064901717 0.0502139293  0.153332219 0.185476959 0.180518568  0.591359258 0 0 0
-0.173316017 0.21974577 0.245763108  0.524609089 0.354299605 0.372029394 -0.678860307  0.118150033 0.0664516687  0.182847679 0.273707867 0.283273846  0.492413074 0 0 0
-0.156274959 -0.163204193 0.410764635  0.867763758 0.464557469 0.0490110703 0.16961813  0.0218635835 0.0323260799  0.110342026 0.135057583 0.133975118  0.56081903 0 0 0
-0.10593427 -0.120199643 0.218675658  0.546357155 0.54532522 -0.579764485 0.260744184  0.0967507288 0.0726397783  0.139381871 0.214916214 0.219400689  0.208475024 0 0 0
-0.204892457 -0.0795275569 0.385324001  0.56280148 -0.495776981 -0.409203619 0.519626915  0.0454024933 0.0281741116  0.192713335 0.23356843 0.227465004  0.417446882 0 0 0
-0.108917862 -0.187132433 0.462942302  0.730180204 0.65048033 -0.145257145 -0.150375277  0.0406119339 0.0230622273  0.12267188 0.157998204 0.154783294  0.527174592 0 0 0
0.214521512 0.0247902125 0.412707925  0.0451570675 0.787092447 0.0783709511 0.610167503  0.0412292778 0.0463705026  0.195413828 0.232874542 0.227697  0.397328764 0 0 0
0.257730931 -0.0479889214 0.377034009  0.830162942 -0.202973083 0.19352074 -0.481851816  0.0310044922 0.037314944  0.0704895258 0.0962554365 0.101479016  0.551591158 0 0 0
0.00732602691 0.359553844 0.287248552  0.830709338 0.411105752 0.368967026 -0.0691188872  0.0516290106 0.03241558  0.148570403 0.193255976 0.189724609  0.659153104 0 0 0
0.0932072625 -0.241004542 0.395218641  0.624755621 0.728645027 -0.00219087745 0.280628055  0.0693024099 0.0441669151  0.171180382 0.230983555 0.224674135  0.640233696 0 0 0
0.0258320756 0.349308193 0.223496243  0.307754248 0.207551762 -0.453801721 0.810107231  0.0131931873 0.00652398495  0.0990255252 0.121178381 0.11627759  0.606286943 0 0 0
-0.0901647657 0.242689282 0.346455783  0.759093821 0.140997559 0.613565445 -0.165631577  0.0819574967 0.065728277  0.190810502 0.238771737 0.238501191  0.297774136 0 0 0
0.208668947 0.0542369038 0.481278539  0.554982126 0.640918732 -0.179152235 -0.499121875  0.0621866509 0.0271356385  0.170052931 0.217640609 0.214887843  0.609116256 0 0 0
-0.165597081 -0.155196697 0.468286753  0.619458675 0.708444238 -0.235248014 -0.242973581  0.0560836606 0.048407834  0.150590956 0.185962796 0.182832837  0.189534798 0 0 0
0.140877202 0.243728921 0.238134578  0.56245631 -0.777407706 0.156392485 -0.234140217  0.101555161 0.111683905  0.157087833 0.221283823 0.215716332  0.715649784 0 0 0
-0.108893603 0.159562126 0.256133437  0.203738183 -0.757936001 0.221515194 0.578752875  0.108524047 0.0735365599  0.133175358 0.185690135 0.188076153  0.513532937 0 0 0
0.174287945 -0.163440853 0.152054086  0.310608238 0.879979551 0.0860600322 0.34893012  0.0599182621 0.0557654761  0.159034088 0.245671436 0.24755539  0.418514282 0 0 0
-0.0636313409 0.134356618 0.4804959  0.462562412 0.488813072 0.519491851 -0.526522696  0.0494111292 0.0954075679  0.185715124 0.218930542 0.215481415  0.545828104 0 0 0
-0.0386690125 0.121287055 0.325964987  0.589655936 0.380617172 0.545514643 -0.45809412  0.0779292732 0.0694569796  0.211894274 0.272786766 0.266589642  0.803016961 0 0 0
0.11436227 -0.0868532211 0.158268496  0.0356910937 -0.411693871 -0.905773938 0.0938507244  0.0474586524 0.0711310729  0.051538378 0.130953938 0.164487302  0.364600897 0 0 0
-0.280524582 -0.000621202402 0.323548734  0.617517173 -0.225783065 -0.705050945 0.265702307  0.0539650917 0.055260893  0.178074464 0.22100988 0.215901375  0.672165871 0 0 0
-0.234750867 -0.0938725546 0.326462626  0.350450724 0.132664233 -0.781976759 0.498093188  0.0998329893 0.0790666565  0.167988896 0.214848086 0.215192258  0.639376521 0 0 0
-0.246313244 -0.0431928858 0.198569074  0.503601789 0.353358984 -0.779080451 0.120649569  0.050078243 0.0627964959  0.150450602 0.259087026 0.27074194  0.342902452 0 0 0
0.0828160942 -0.241373315 0.345769316  0.577743351 0.619431674 -0.510185957 0.149088666  0.0794175118 0.1047085  0.192152843 0.252306223 0.25155586  0.413977772 0 0 0
-0.224978507 0.0624231547 0.394482076  0.67500037 -0.729968369 -0.0519288518 -0.093936868  0.0871086791 0.074711144  0.162645131 0.198863804 0.197379395  0.595774889 0 0 0
0.116898023 0.238211855 0.210539505  0.889114261 0.381223619 0.250822186 -0.035109777  0.0524719357 0.0481535047  0.152108192 0.216242224 0.222479403  0.531494796 0 0 0
0.198654816 -0.190980598 0.241048262  0.613555193 0.356855631 0.682603121 -0.173945576  0.0448553972 0.0499355234  0.199313581 0.262963861 0.260220259  0.56569016 0 0 0
0.0981791392 -0.238944352 0.392941058  0.116832353 0.570217729 -0.500712395 0.640694261  0.0449286848 0.0619007014  0.178299412 0.244837806 0.237593845  0.723374486 0 0 0
0.228923574 -0.0327571742 0.203527853  0.0176165719 -0.829162002 0.0274600517 -0.55805552  0.0630368963 0.0532731228  0.183500737 0.231582478 0.225761205  0.344929159 0 0 0
0.0124197518 -0.16891776 0.235271618  0.524682283 0.824306428 -0.210546806 0.0299605522  0.0864773467 0.0628539026  0.162461281 0.2376315 0.250117272  0.431773096 0 0 0
0.207314327 -0.0106168166 0.153835416  0.277072847 0.721970439 0.429623634 0.466275603  0.079301469 0.0709200278  0.145341903 0.251571298 0.279952824  0.338930905 0 0 0
0.231101856 -0.0721963495 0.216646105  0.456524551 -0.405589312 0.725347817 -0.317731261  0.0698946193 0.097288698  0.178284526 0.225415915 0.218796179  0.432938963 0 0 0
0.0391190425 -0.229441434 0.369847417  0.381581724 0.742591679 0.335364223 -0.436444551  0.0685943738 0.0563050881  0.143994391 0.192748666 0.20237346  0.542384744 0 0 0
-0.115634836 0.213722676 0.406606317  0.529099345 0.585656762 0.280767262 0.546104252  0.0518964753 0.0577629656  0.224902347 0.272912353 0.266480505  0.523825049 0 0 0
-0.0993332639 -0.191096678 0.488380969  0.635732055 0.700215876 -0.224342614 -0.23497431  0.0602216721 0.0278325733  0.176007658 0.214476272 0.211251125  0.504998386 0 0 0
0.276938111 0.0220214538 0.314140469  0.461794943 0.490572661 0.681970656 0.284605086  0.0565295257 0.0655837432  0.170815706 0.208870724 0.205416903  0.846950829 0 0 0
-0.0862898827 0.224714413 0.448595464  0.132559136 -0.15811868 0.619712949 -0.757220268  0.0597414263 0.0457498394  0.173024684 0.212504148 0.209656939  0.412979662 0 0 0
0.115168869 0.0109696547 0.137547806  0.0333790295 0.388951153 0.915179014 -0.100251511  0.150818437 0.170059383  0.0372498408 0.144291237 0.197789237  0.378816068 0 0 0
0.182278067 0.219279692 0.33610341  0.0008459565 -0.470578164 -0.470122129 -0.746686459  0.0713471696 0.0993679538  0.148086354 0.191319183 0.189587206  0.524723828 0 0 0
-0.0712839961 0.267872542 0.319108874  0.433705389 0.638549685 0.0644004121 0.632460773  0.0374598242 0.0352153108  0.162655458 0.196438894 0.189938366  0.561626017 0 0 0
0.489490271 0.0994722992 0.000566702511  0.0106141996 0.0579639487 -0.00499276025 -0.998249829  0.0288077518 0.102288485  0.175616384 0.140321523 0.0955344141  0.433008522 0 0 0
-0.180914968 -0.0997736156 0.251147836  0.41819188 0.310679615 -0.756095171 0.396123677  0.0637984127 0.0564278513  0.14047572 0.193099618 0.19088906  0.659880221 0 0 0
0.225639239 0.164104998 0.224059016  0.489718854 -0.549996734 0.621700108 -0.266773522  0.0883903503 0.0738265961  0.169852763 0.225194603 0.218998566  0.455025971 0 0 0
-0.162049279 -0.151139647 0.450471073  0.676298499 0.69060576 -0.227691263 -0.117647067  0.0328680873 0.0229456164  0.136911765 0.175063655 0.170193613  0.58210659 0 0 0
0.251555026 0.118769415 0.321101576  0.37462765 -0.613775909 -0.285955906 -0.633373976  0.0355277583 0.0525109358  0.145261526 0.191633791 0.186499462  0.737388372 0 0 0
0.180552468 0.101286478 0.306854606  0.558983624 0.299330443 0.590324581 0.499455243  0.0412630886 0.0369222984  0.19187963 0.230130568 0.225767344  0.961824715 0 0 0
0.012396357 -0.182569757 0.26860407  0.563761294 0.718743563 -0.397971958 0.0848480687  0.061957486 0.0601642318  0.153303713 0.205279663 0.199431881  0.360529125 0 0 0
-0.183391422 -0.132446572 0.484655559  0.379475951 -0.341449946 -0.62505579 0.590521097  0.0486258715 0.024453884  0.187080204 0.228383005 0.223230854  0.603097737 0 0 0
-0.132384434 -0.170037061 0.43981114  0.647643924 0.460080355 -0.568015635 0.215038568  0.0622513443 0.0460682735  0.155981064 0.193531603 0.190158904  0.998924017 0 0 0
0.0948788747 0.178992152 0.163094655  0.187683821 -0.774531722 -0.578835726 -0.172698215  0.0569214411 0.077465497  0.0789846852 0.109545656 0.113325097  0.739736199 0 0 0
-0.124340221 -0.160525873 0.352631301  0.574079394 0.769466937 0.0309753921 -0.278198063  0.0325366072 0.0367648676  0.172573268 0.215442434 0.215052694  0.734618783 0 0 0
-0.0352536403 0.342625827 0.336286753  0.395867676 -0.270182133 0.508247316 -0.715524435  0.0584313124 0.0565798655  0.174916938 0.234000981 0.233610913  0.347337514 0 0 0
0.208975747 0.199186534 0.288093269  0.643611014 -0.670863807 0.17144838 -0.326055348  0.066087544 0.0613323599  0.142050043 0.181093514 0.174102619  0.625594974 0 0 0
-0.284549773 0.026594013 0.340399355  0.682075143 0.240836754 -0.681045413 -0.113790832  0.071175009 0.0356950648  0.198500603 0.247043058 0.239848509  0.595003188 0 0 0
0.0260848999 0.206106424 0.495417118  0.691388369 -0.230307952 0.682158887 0.0599976815  0.00526183099 0.0723285228  0.136613473 0.175137639 0.17088069  0.884360433 0 0 0
0.168297306 -0.223155975 0.255323172  0.342265785 -0.128100559 0.764104724 -0.531590521  0.118847564 0.0875567496  0.200727388 0.267832637 0.262382537  1 0 0 0
0.196890235 -0.137678459 0.162392035  0.470454782 0.408010572 0.781694233 0.0339686535  0.0636772066 0.0599893332  0.159684077 0.267841786 0.284433663  0.397752196 0 0 0
-0.0147299133 0.335881352 0.269124299  0.580780208 0.624134421 0.193281606 0.485584974  0.0522453859 0.0426788032  0.158534199 0.219429404 0.221797556  0.487485021 0 0 0
0.269027233 0.093566291 0.334146023  0.142515436 -0.560215712 -0.165506095 -0.799034119  0.0621355027 0.0490887314  0.121494561 0.157810509 0.154825807  0.693992913 0 0 0
0.00834221486 -0.161034629 0.177377671  0.635057926 0.709358811 -0.300521106 -0.0565564819  0.0626387969 0.0487669893  0.171337575 0.243367046 0.245048106  0.616578758 0 0 0
-0.19870545 -0.142567039 -0.00109682884  0.675789595 0.00124455278 0.00474932091 -0.737078309  0.36031726 0.277703911  0.247509927 0.199675441 0.130409673  0.401001543 0 0 0
-0.150219992 -0.135105729 0.319451213  0.517496884 0.420693457 -0.659929097 0.345987946  0.0620244108 0.0529614389  0.138566568 0.191667929 0.186938971  0.485688478 0 0 0
0.229559496 -0.0309824906 0.204540044  0.49897033 0.366455168 0.745315611 0.247475058  0.0615159348 0.0428989083  0.161871269 0.20924741 0.205732346  0.737252653 0 0 0
-0.116014525 0.192783684 0.357725114  0.0448087938 0.679053485 -0.330208898 -0.654095232  0.0740975216 0.0599767864  0.152026579 0.19548507 0.191392094  0.71557337 0 0 0
-0.174013361 0.0709165782 0.405926615  0.634742916 -0.0479635261 -0.747609913 -0.189421237  0.0548628308 0.0495797843  0.249200568 0.309814036 0.301175922  0.516909897 0 0 0
0.0813085809 0.122936413 0.487242162  0.755685389 0.651281774 -0.00151955057 -0.069060199  0.0447312593 0.0359749869  0.223273665 0.263552397 0.258148611  0.629060328 0 0 0
-0.180809706 0.048387289 0.425060868  0.523884952 -0.59319663 -0.431787193 0.432691902  0.0744643509 0.0447601154  0.200170279 0.235106513 0.22986424  0.494073004 0 0 0
0.00342462026 0.391308278 0.358983964  0.594615579 0.590971231 -0.0825486258 0.538860857  0.0491452664 0.06012436  0.120230541 0.157574043 0.153456792  0.69430691 0 0 0
-0.00422601309 0.461758822 0.466102391  0.187002942 -0.689176023 0.644098699 0.27423209  0.109997027 0.0572381318  0.14891915 0.201167777 0.201850787  0.371404022 0 0 0
0.211468533 -0.188609302 0.289546728  0.439844221 0.758081257 0.0110589415 0.481380999  0.0743584558 0.0866256952  0.188732639 0.249370947 0.245038196  0.501201868 0 0 0
-0.256573141 -0.00899340957 0.186695024  0.220897272 0.819791079 -0.0678264499 -0.523972034  0.0550604276 0.049739141  0.185360476 0.277395993 0.280040741  0.706525385 0 0 0
0.102859944 0.197375089 0.16160588  0.417287678 -0.0703050941 -0.792212069 -0.439691067  0.0448032133 0.0279531479  0.182654545 0.220297992 0.203006908  0.609504282 0 0 0
0.00419726223 -0.143415689 0.132221684  0.538206518 0.810742438 -0.147662088 -0.176710024  0.0811760277 0.0634425282  0.141630054 0.257243872 0.286969721  0.434384465 0 0 0
0.23538354 -0.155136317 0.316375613  0.426290959 -0.280375779 0.663488925 -0.547218323  0.0927947611 0.0691481382  0.168047547 0.215491906 0.209188908  0.949012935 0 0 0
-0.109942973 -0.193061575 0.404309481  0.647247195 0.567345262 -0.497211933 0.109411448  0.0296521727 0.0247010347  0.133920148 0.173890337 0.169535384  0.356931746 0 0 0
-0.233057752 -0.109579712 0.382872105  0.232853815 -0.0569783002 -0.732706964 0.636924684  0.0429525413 0.0488358848  0.150281489 0.185964733 0.183170497  0.868891299 0 0 0
-0.142071471 -0.113227166 0.24105221  0.37783733 0.711145639 0.380344987 -0.454806179  0.0944289342 0.0685464516  0.144779935 0.182368413 0.17718786  0.789449692 0 0 0
0.149118885 0.109106101 0.433073252  0.335140079 0.202670351 -0.677480042 0.622596681  0.0469120704 0.044907745  0.190997899 0.24427101 0.236526653  0.826527596 0 0 0
0.10751614 0.265414447 0.235325068  0.706963062 0.262867302 -0.536021113 0.379190445  0.0290224161 0.0387595221  0.160632536 0.215804413 0.21814701  0.894695282 0 0 0
-0.0827648193 -0.171912566 0.342790604  0.540600896 0.795398951 0.0788170546 -0.26244849  0.0835221335 0.072764501  0.1340051 0.18353647 0.18491818  0.580546498 0 0 0
0.0487723276 -0.169630751 0.144017488  0.561137795 0.795821011 -0.17358616 -0.147177488  0.0476612821 0.0390947461  0.153959617 0.271836966 0.285896927  0.578514099 0 0 0
-0.162825167 -0.19383578 0.370868325  0.340499282 0.833720803 -0.256997526 -0.350602806  0.0821365267 0.0512540899  0.182573199 0.232020423 0.231200889  0.539621711 0 0 0
-0.156750679 -0.148353547 0.377655715  0.587640524 0.462723821 -0.615180671 0.249235108  0.0685977638 0.0502186567  0.185906932 0.233621806 0.234050706  0.464810431 0 0 0
-0.275399119 -0.0200822763 0.304061681  0.231146917 -0.679944932 -0.325258493 0.61518538  0.0356995575 0.0410950482  0.203080803 0.248671636 0.241913781  0.677662611 0 0 0
-0.280131817 -0.182459608 0.401682854  0.581600606 -0.0834796801 -0.802623987 0.102793902  0.041793935 0.0282317605  0.122720763 0.173958853 0.164633676  0.278534949 0 0 0
0.0628043041 0.274382025 0.246195614  0.886971176 0.454422861 0.076874055 0.0295355581  0.060268309 0.034015879  0.0907271653 0.184850439 0.200920761  0.664963126 0 0 0
-0.104535379 0.134939864 0.473414898  0.128559679 0.115772866 0.702976763 -0.689849794  0.0633528456 0.0790012702  0.240328044 0.298112065 0.295924485  0.404356569 0 0 0
0.174810499 0.124578476 0.484394908  0.0304694735 0.00802429207 0.708687067 -0.704819083  0.0270986054 0.03523371  0.173359737 0.2180143 0.213256508  0.579495847 0 0 0
0.478490204 -0.188752815 0.00168047845  0.0218217522 0.033267431 0.00943645928 -0.999163687  0.0444472618 0.114506096  0.198071763 0.159424663 0.110389255  0.349306762 0 0 0
0.203103527 -0.13725175 0.363497555  0.0529405922 0.214778215 0.560500383 0.79806453  0.0530842394 0.0548350923  0.194582939 0.234184086 0.232099012  0.729583561 0 0 0
-0.187378928 -0.125806302 0.35423249  0.610496819 0.739304125 -0.277736604 -0.0598788038  0.0436510406 0.0386806875  0.171479687 0.213447616 0.21057187  0.457720965 0 0 0
0.256511748 0.0348811187 0.373177946  0.801835239 -0.285923719 0.524534881 0.0130734043  0.0507564396 0.0333829671  0.154110774 0.188231066 0.184931934  0.335260689 0 0 0
-0.157208443 -0.133111924 0.325796396  0.524163067 0.448744029 -0.658494771 0.300444067  0.0585098676 0.0554120094  0.147028223 0.183765545 0.180439189  0.565721631 0 0 0
0.182881042 -0.170828789 0.436980397  0.515758216 0.168012589 0.673620522 0.501996636  0.0312442649 0.025482459  0.14141576 0.169455469 0.164286748  0.415399522 0 0 0
0.180965453 -0.208420962 0.247795567  0.770109296 -0.362007648 -0.511077762 -0.121168219  0.0451292098 0.0409329571  0.205194652 0.263893753 0.259202927  0.878150403 0 0 0
-0.0580252111 0.248977855 0.253782302  0.757145941 0.419671953 0.446416706 0.22653389  0.0589352362 0.0451499186  0.171081647 0.219783157 0.215096563  0.405970395 0 0 0
0.259486139 -0.384689569 0.300255388  0.0981761515 -0.810571969 0.577232242 0.0117298262  0.0630463064 0.10610909  0.0388349816 0.0317059606 0.0187583957  0.470342875 0 0 0
-0.111339018 -0.17753154 0.413386315  0.509236693 0.717572987 0.200252801 -0.430889785  0.055492945 0.0570491254  0.159181699 0.198796451 0.195867151  0.600686491 0 0 0
-0.239980727 -0.151437119 0.322464406  0.17166993 -0.477186054 0.0310425535 -0.861312568  0.0820715949 0.118889794  0.179022893 0.245155782 0.24685286  0.500303149 0 0 0
-0.00128783844 0.371456653 0.316857189  0.248988792 -0.215732291 0.50417006 -0.798296034  0.0357964858 0.0295528341  0.157906294 0.203023687 0.199691296  0.486792952 0 0 0
-0.179977387 0.113974169 0.476091951  0.643547356 0.627111316 0.0439383462 0.436632097  0.0910559297 0.0681744143  0.170848399 0.212601498 0.208700955  0.476987153 0 0 0
-0.157865733 -0.116635568 0.271460086  0.0179722998 0.33413741 0.74848032 -0.572543919  0.0540345684 0.0429962724  0.157383248 0.200173721 0.197050422  0.530949533 0 0 0
0.124900065 -0.258181334 0.324867874  0.489603251 0.597253323 -0.27682814 0.571789563  0.0838533044 0.0543069243  0.152038172 0.24886252 0.242230147  1 0 0 0
0.0221053977 0.384653538 0.313955218  0.650353849 0.551004291 -0.0910077468 0.514928937  0.0308464374 0.0289467815  0.121899083 0.158429578 0.152841792  0.638740897 0 0 0
-0.0402000137 -0.131501928 0.161595345  0.502941966 0.326868296 -0.679278374 0.422832578  0.0585327186 0.044988174  0.192866623 0.244045958 0.237610042  0.567474425 0 0 0
0.193768293 -0.0408325233 0.420302153  0.476570576 -0.342844605 0.65116024 -0.480966091  0.022593515 0.0356700718  0.140452996 0.170365497 0.166943535  0.367004752 0 0 0
0.0762495399 0.180817738 0.00125096471  0.997884929 -0.00160305435 0.00165296101 -0.0649641231  0.314027518 0.242636174  0.249019116 0.195734993 0.119072869  0.420337737 0 0 0
-0.0993587524 0.200744539 0.303559691  0.421455532 0.638488948 0.17339626 0.620194197  0.0356063023 0.0333942361  0.154850185 0.200044543 0.195884377  0.567758381 0 0 0
0.196040481 -0.0854533538 0.47990489  0.711217046 0.11554122 0.66217041 0.205793738  0.0211316682 0.0320322625  0.122740291 0.154253587 0.151624858  0.548211098 0 0 0
0.116162203 -0.222300947 0.433398783  0.536971688 0.162021086 0.640877306 -0.524105847  0.0724925175 0.0948451385  0.132472768 0.172333211 0.170248672  0.652979016 0 0 0
0.195195585 -0.0777436793 0.444437504  0.548862398 0.357157528 0.699919224 0.285134673  0.0640127137 0.0634794533  0.213606268 0.266092896 0.261763871  0.262877673 0 0 0
0.125510916 -0.216561839 0.197592556  0.413460433 0.533186555 -0.0949069634 -0.731953084  0.0396669656 0.0421512537  0.152954251 0.206864491 0.203790233  0.280994892 0 0 0
0.0137254344 0.00410178024 0.544246793  0.342815042 0.704749167 0.0692018047 0.617266238  0.0562667735 0.0654570311  0.139046878 0.186939538 0.180977598  0.721283138 0 0 0
0.0368895233 0.365044832 0.300434053  0.849121928 0.109663583 -0.48458752 0.179278806  0.0822961554 0.0596862473  0.148758709 0.210495561 0.209442452  0.732184291 0 0 0
0.226727605 0.050589297 0.415430516  0.490720004 0.604342639 0.556174219 0.290919632  0.0417622551 0.0140108326  0.142714679 0.18844083 0.186334088  0.500490129 0 0 0
0.0382579304 0.155159056 0.495185375  0.584456384 -0.115128733 0.79968369 -0.0752471238  0.0224111229 0.0500339679  0.147833169 0.173017979 0.171068177  0.577125192 0 0 0
0.104687534 -0.310673386 0.389326364  0.730820715 0.546883345 0.400691211 -0.0791598856  0.0307600144 0.0700940564  0.0730058551 0.119776852 0.116277173  0.99810493 0 0 0
0.0232862141 0.019483041 0.575809896  0.152347952 0.713482201 -0.15195547 0.66681546  0.0404803194 0.0726839826  0.137954295 0.17187579 0.167911306  0.893970132 0 0 0
-0.000571005628 -0.420072407 0.362128645  0.795119524 -0.374500453 0.4766379 -0.0187288597  0.0337364897 0.0535217822  0.114457451 0.148268551 0.144367337  0.630217671 0 0 0
0.218894899 0.0765605196 0.426754832  0.101155296 0.440268815 0.479405224 -0.752397239  0.0377685614 0.0539553128  0.191984609 0.24385874 0.237832636  0.691477001 0 0 0
-0.146911621 0.10310369 0.306926191  0.459631205 0.251378357 -0.720646083 -0.454111636  0.0724843293 0.0867914259  0.170688674 0.221189618 0.21841304  0.737619102 0 0 0
-0.0317365117 0.132362962 0.495726913  0.680688977 0.731764019 -0.0329945311 0.00977006741  0.0817105025 0.0428081863  0.197535962 0.231127754 0.227269217  0.579191446 0 0 0
0.072356455 0.134075612 0.13878426  0.0170046631 -0.229005262 -0.938816428 -0.256692857  0.10834451 0.0735796392  0.113288969 0.186510369 0.210836053  0.551352799 0 0 0
0.254857987 -0.101448208 0.287936002  0.205067128 -0.734300494 0.338667452 -0.55141145  0.0619105846 0.0377012752  0.178143606 0.220122114 0.213435724  0.663933814 0 0 0
0.197875276 -0.128632396 0.424298644  0.443066746 0.662961245 -0.0448030755 -0.601803124  0.0780682415 0.0503013767  0.209754854 0.245115876 0.238476694  0.649201572 0 0 0
-0.203891888 -0.0858910605 0.485882908  0.701401412 0.0814719349 -0.69750011 0.122033022  0.0352035761 0.0287094358  0.158817232 0.195739657 0.191563681  0.81727612 0 0 0
0.174647748 0.00194792938 0.4740448  0.316200703 -0.76288873 0.00962444395 -0.563848674  0.0392704755 0.0248009935  0.213171974 0.251911163 0.245334536  0.603572071 0 0 0
0.00960619375 0.402609557 0.462987423  0.629984856 0.157122523 -0.709227979 -0.274640411  0.0339352265 0.0605931468  0.180747241 0.227609754 0.224185169  0.568926394 0 0 0
-0.00862018019 -0.00480862707 0.57743609  0.610947728 0.292016536 -0.689917982 0.255895257  0.0324437656 0.125439912  0.165213957 0.204236239 0.199901536  0.827239335 0 0 0
0.214910492 0.00971696712 0.46440348  0.0760376453 0.673528075 -0.330310166 -0.656866431  0.056260936 0.0709614381  0.144868121 0.18607007 0.183754995  0.155217275 0 0 0
-0.173639566 0.0714164078 0.472615242  0.0272656009 0.642740548 -0.185791239 -0.742713153  0.0643502697 0.0490478761  0.199149057 0.245489612 0.240599096  0.673683107 0 0 0
0.0185046326 -0.182156309 0.258466899  0.0735913068 -0.141787365 -0.84666878 0.507575393  0.0472811162 0.0456615537  0.150480941 0.214817703 0.21760188  0.594540894 0 0 0
0.108404569 0.206002742 0.210228413  0.000409472035 0.130657971 -0.558946252 -0.818845212  0.0380864516 0.0303718802  0.171410933 0.228958651 0.20957993  1 0 0 0
-0.0264061652 -0.438211083 0.436494678  0.520939052 -0.397194266 0.587867796 -0.474626869  0.0533581041 0.0252261069  0.169716254 0.222801641 0.216499448  0.865472734 0 0 0
-0.115239687 0.31727311 0.00166135456  0.432232231 -0.00685618492 -0.00507863797 -0.901722014  0.248763964 0.269584358  0.239303842 0.191731021 0.130164877  0.390818208 0 0 0
0.234696403 0.0581906587 0.216794625  0.232437894 0.754419029 0.376710713 0.484679013  0.0648555309 0.0492378771  0.17251651 0.221387982 0.213280261  0.768406868 0 0 0
0.189211726 0.0932735726 0.463435262  0.116150267 0.730981767 -0.131042212 -0.659547448  0.0259478353 0.026455095  0.104654305 0.130837351 0.129249692  0.857657492 0 0 0
0.229640082 0.0187198725 0.456897169  0.511417091 -0.0352747031 0.828778684 0.224352896  0.0430497341 0.0535406023  0.199411854 0.246973261 0.244987667  0.276224941 0 0 0
0.00548430346 -0.186205596 0.285283536  0.573075116 0.705577374 -0.403410405 0.104908049  0.0482783802 0.0450041406  0.18854861 0.235516712 0.230881616  0.687679112 0 0 0
0.0386480018 0.233306974 0.229710639  0.465854317 -0.775244832 0.285421371 0.317032933  0.043738693 0.0300107021  0.126277298 0.181187436 0.173449665  1 0 0 0
0.0198233575 0.4455235 0.482754618  0.719259381 0.0667646676 0.690750539 -0.0327447057  0.0226283539 0.0411597341  0.144031256 0.181284025 0.176988766  0.922550619 0 0 0
0.00622848189 -0.219349548 0.453503847  0.597365201 0.57640332 0.397844255 -0.390684038  0.0243698359 0.0233659241  0.161560789 0.192224324 0.187575862  0.842933774 0 0 0
-0.100202441 0.242537335 0.392904073  0.0408435427 0.553214014 -0.455444902 0.696316004  0.040836934 0.0353337713  0.126189828 0.146019891 0.14443256  0.593344808 0 0 0
0.0889260322 -0.0310256351 0.146915004  0.00148434751 -0.0509545989 -0.992375612 0.112214833  0.0453593582 0.0605940558  0.089699477 0.097702831 0.0848424211  0.507965803 0 0 0
-0.129687071 -0.172942534 0.463525474  0.694116771 0.667760074 -0.227954611 -0.142601132  0.0275829975 0.0302466713  0.143849477 0.179135397 0.17592752  0.737933993 0 0 0
-0.00740337232 0.37671268 0.342472017  0.795917094 0.282119185 0.498076618 -0.197090253  0.0704774335 0.0486182906  0.16177541 0.209420726 0.207995459  0.330252767 0 0 0
0.178606674 -0.380448729 0.252002865  0.0537363589 -0.640247941 0.759214103 -0.103869721  0.0828721821 0.161481261  0.0514379293 0.0422216728 0.0256254636  0.596477389 0 0 0
0.00120784005 -0.356411517 0.450735748  0.312020838 -0.484327078 0.724058151 -0.379222959  0.0711400434 0.013883329  0.195423692 0.241728991 0.241097957  0.443148762 0 0 0
0.205663979 0.119485781 0.440832883  0.489973247 -0.029589843 0.637446046 -0.593896627  0.00731727714 0.0141386734  0.142483443 0.1723928 0.168058097  1 0 0 0
-0.130798414 0.182033062 0.464572847  0.464653671 0.29074958 -0.642921686 -0.534989297  0.0823832005 0.0526256487  0.194613501 0.249190882 0.248642921  0.543392062 0 0 0
0.00496145617 -0.406332016 0.331379086  0.658789277 -0.58122611 0.218711749 -0.424662292  0.0282491613 0.0347651169  0.102537021 0.14242892 0.139698192  0.747079551 0 0 0
0.240453675 0.126329809 0.361234039  0.731620312 0.604868293 0.30463329 0.0778756812  0.0284284689 0.0293046925  0.200954631 0.23996377 0.233165205  0.543514013 0 0 0
0.0142090274 -0.272586644 0.283004135  0.390133351 0.50051266 0.551172733 0.541748703  0.0613984242 0.142654359  0.127741382 0.173370659 0.174191505  0.594192386 0 0 0
-0.00158991932 -0.229331613 0.441813469  0.47961098 -0.453480721 0.534244537 -0.528120637  0.0938079655 0.0269339494  0.167042911 0.220608011 0.217641994  0.749351203 0 0 0
-0.126470417 -0.165173128 0.37663871  0.274498701 0.563874006 0.517075419 -0.582520127  0.035518121 0.0298095904  0.154326424 0.200114384 0.202178568  0.789371848 0 0 0
-0.085329406 -0.238775969 0.295621783  0.61525321 0.651205778 0.365785062 0.252182245  0.102366321 0.0502864309  0.259981394 0.360247254 0.355918229  0.656394899 0 0 0
0.00385277555 0.375599563 0.396858603  0.400657058 0.379371673 0.742909431 0.378994316  0.0291018896 0.0522267744  0.167793185 0.233721972 0.230214968  0.472412378 0 0 0
-0.205689147 0.061884474 0.456269711  0.653757393 -0.718403697 -0.0797549933 -0.223912165  0.0816497058 0.0447700433  0.161967114 0.202699304 0.202899054  0.599639177 0 0 0
0.176821306 0.232748583 0.244931102  0.300048351 0.311775684 -0.543964207 0.718936682  0.0293506179 0.0379259586  0.148726746 0.200549483 0.200073659  0.274689764 0 0 0
0.0108100632 -0.431568593 0.348814726  0.701044798 -0.563171625 0.330317467 -0.28681758  0.0324272551 0.0447602719  0.121900007 0.15902482 0.155162975  0.741935194 0 0 0
0.015693238 0.415505767 0.478461176  0.768469751 0.23601605 0.594537497 -0.0166082568  0.0252572056 0.0316158496  0.153416023 0.186905101 0.183030561  0.544161916 0 0 0
0.000808315235 -0.307394743 0.230328083  0.788886786 -0.287441432 0.542545795 0.0260628369  0.0173979159 0.0542461127  0.107037216 0.150108591 0.147895187  1 0 0 0
-0.0112989424 -0.21387817 0.173921287  0.62413615 -0.281523854 0.715210676 -0.140257597  0.0734996349 0.153239921  0.164024964 0.221514657 0.220576033  0.479644716 0 0 0
0.238856316 -0.0369224586 0.412761062  0.36127618 -0.713308632 -0.156217828 -0.579884887  0.0547621399 0.0607686453  0.172327593 0.213933259 0.211128876  0.491477966 0 0 0
-0.0247029867 -0.219433859 0.425150782  0.507462025 0.783707559 0.0593933761 -0.353209913  0.0547396541 0.0675352663  0.205341667 0.248540908 0.248400658  0.499795526 0 0 0
0.0752598792 -0.279755563 0.227001309  0.0311152749 0.0868475512 -0.799431324 0.593632042  0.0245118756 0.0472915247  0.157120898 0.219702274 0.215090677  0.927467167 0 0 0
0.0542308204 0.326366574 0.277320057  0.593853295 0.220555812 -0.274841458 0.723294973  0.0439203978 0.02977027  0.0768336952 0.143654719 0.16304937  0.707115471 0 0 0
-0.00113009429 -0.435053974 0.393354267  0.730634868 -0.521221995 0.281012148 -0.339900762  0.0240789391 0.0417590104  0.116013713 0.153758526 0.149402931  0.804187596 0 0 0
0.122990347 0.118016563 0.496491075  0.33113423 0.478965521 0.558118165 -0.591139793  0.0154982088 0.0248279013  0.172354385 0.214171037 0.209644675  0.716546416 0 0 0
-0.215687975 0.0386754647 0.467983276  0.602872849 0.603668332 -0.403580248 0.33053267  0.058218047 0.030002255  0.150814056 0.184852466 0.181232512  0.644777656 0 0 0
-0.0483974218 -0.189223096 0.356467545  0.0841890574 0.370040685 0.718425989 -0.582963347  0.0631491616 0.0496435128  0.174326763 0.220563188 0.217113331  0.581338763 0 0 0
0.197411209 -0.157109499 0.442587167  0.685197055 0.48621732 0.47783348 -0.256462425  0.0324686021 0.0331031308  0.13206318 0.169747263 0.163721994  1 0 0 0
0.186145276 -0.1118434 0.441453964  0.298933774 0.714599431 0.367989689 0.514363527  0.0235768296 0.0356201828  0.13961342 0.171073556 0.169428319  0.424043685 0 0 0
0.0212312844 0.465725273 0.484350622  0.663245857 -0.0262279939 0.741599917 0.0971937925  0.0230004899 0.0327611044  0.122385964 0.170010135 0.165111557  0.73216188 0 0 0
0.00872169062 -0.234046042 0.49041152  0.469792187 0.878903031 -0.0522132292 -0.0640198216  0.0596363991 0.038816236  0.172685325 0.224692494 0.224506214  0.139566973 0 0 0
-0.13847135 -0.0972747281 0.189670548  0.265433848 0.571899831 0.537954509 -0.559535861  0.0617332906 0.0558276847  0.18046388 0.219420537 0.204514831  0.357707053 0 0 0
0.202741593 -0.0744965747 0.488209367  0.655773759 0.139144748 0.739263475 -0.0639462173  0.0234005302 0.0383472443  0.149779469 0.190079272 0.187976986  0.586257994 0 0 0
0.158957452 0.0218697786 0.495893836  0.710380673 -0.177513853 0.654541731 0.188210845  0.0478902049 0.064258568  0.197990045 0.22843644 0.227212533  0.454062045 0 0 0
0.0114083104 -0.358537793 0.260740757  0.848073661 -0.321963042 0.415941358 -0.0640611798  0.0137915015 0.0694229081  0.0850084648 0.130997792 0.131836593  0.795784235 0 0 0
0.0117402151 -0.399185568 0.303218246  0.824904382 -0.36823827 0.428510964 0.0176554956  0.0325883478 0.0747989863  0.111393906 0.155579537 0.152764425  0.632267833 0 0 0
-0.00105498068 -0.218568295 0.245020509  0.668647766 -0.138297439 0.730390549 0.0177128613  0.0668518394 0.121321008  0.154383883 0.192438781 0.184205249  0.731404901 0 0 0
0.251902342 0.0550884828 0.258434802  0.268739581 -0.735959709 0.386189073 -0.486826956  0.106832601 0.0964689776  0.143782899 0.184792265 0.182582095  0.728885591 0 0 0
-0.131281823 0.094496578 0.313614875  0.321088284 0.0726982728 0.631276488 -0.702216029  0.0581490658 0.0452724397  0.140989557 0.198696703 0.189965352  0.755002618 0 0 0
0.0531083308 0.19782947 0.444476485  0.380961418 -0.682914615 0.17628026 -0.597847283  0.00731481006 0.0283803083  0.146723837 0.173391819 0.167299852  0.923792362 0 0 0
-0.00825808942 -0.424409926 0.390142024  0.774838984 -0.350865066 0.523850381 -0.0458161384  0.0658544898 0.0326467566  0.128571242 0.177199215 0.174393758  0.572716534 0 0 0
0.000549526885 -0.363510519 0.274235189  0.859528601 -0.305444926 0.406917751 0.0482914373  0.0447718576 0.0952138677  0.10794013 0.162160859 0.163236439  0.566442251 0 0 0
0.183811903 -0.126198933 0.485132217  0.660346687 0.259434849 0.685364187 0.164048329  0.0204845592 0.031133065  0.153253317 0.1876349 0.184873998  0.396235347 0 0 0
-0.242036015 -0.0593262911 0.432908386  0.742786467 0.433372796 -0.316426516 -0.400413156  0.0455379821 0.04786117  0.109087378 0.14128153 0.141209349  0.367797047 0 0 0
0.0251973905 0.39395681 0.330471545  0.417393148 0.462632239 -0.370295942 0.688937843  0.0444988906 0.0224217176  0.136461213 0.168146834 0.165858969  0.585085332 0 0 0
0.270120591 0.0913603604 0.326329052  0.457652926 0.248916864 0.678057134 0.518490851  0.0358895957 0.0463703349  0.145396456 0.174070239 0.167803764  0.640924096 0 0 0
0.0854863748 -0.272941113 0.217979953  0.202153414 0.601677597 -0.60452044 0.481324345  0.0236855764 0.0385820419  0.117893636 0.189863831 0.187722787  0.647705913 0 0 0
0.00839457009 -0.443944305 0.384499341  0.700141609 -0.552322865 0.253547907 -0.374772817  0.0272463243 0.0622331612  0.126280263 0.166168019 0.161968485  0.624518752 0 0 0
-0.206704855 -0.14519614 0.399628043  0.649409473 0.39920783 -0.0331539772 -0.646375597  0.0357354246 0.0446793586  0.0751962736 0.0977972001 0.0986364409  0.599245846 0 0 0
-0.15621686 0.131596625 0.453979522  0.621995926 0.504063725 -0.303262264 0.516791046  0.024232164 0.0415794179  0.174554661 0.21165213 0.209594384  0.322618008 0 0 0
-0.143718958 0.258068115 0.0520916805  0.142893508 -0.989126921 0.0317534544 -0.014182955  0.0273660701 0.0537697412  0.0565041304 0.0448635779 0.0256417114  0.677050114 0 0 0
0.278002083 -0.0240926724 0.333546311  0.450504035 0.643614173 0.469846934 0.402555346  0.0659677759 0.0617771931  0.153263599 0.19246693 0.189783484  0.645241499 0 0 0
0.199822232 -0.0447028875 0.475893378  0.0197019875 -0.760450542 -0.0791461915 -0.644253671  0.0508721098 0.0405075811  0.17300491 0.203154489 0.199131921  0.499084234 0 0 0
0.0131137799 0.443454921 0.452351719  0.556301773 0.276173502 0.744594038 0.24461481  0.0220044293 0.0489111915  0.133338183 0.182382762 0.178583831  0.539536655 0 0 0
-0.184142113 0.0362313166 0.483701259  0.584189534 0.486934394 0.56181097 0.325554937  0.0720488876 0.0439306684  0.162415773 0.200648353 0.197541729  0.451379895 0 0 0
0.125082195 -0.125334829 0.484842688  0.354062021 0.760151625 -0.26662755 0.475099415  0.0346470699 0.109851465  0.191105932 0.233143404 0.231885836  0.499686539 0 0 0
0.190126136 0.0697603971 0.432050437  0.575327873 0.310090542 0.704678595 -0.276169837  0.0443750508 0.0263254941  0.151871279 0.198357046 0.193489611  0.560380697 0 0 0
-0.130216002 -0.168709815 0.37079823  0.770542204 0.61514473 0.0992992148 0.1341694  0.0206882935 0.0385292135  0.132249206 0.16712521 0.168328747  0.385668576 0 0 0
-0.129775614 -0.1723243 0.489869475  0.687300086 0.687731862 -0.229716599 -0.0432872511  0.0425439738 0.0203756541  0.163512662 0.196726963 0.193090484  0.486626536 0 0 0
0.240562856 -0.0736648738 0.405804574  0.857754469 -0.00643995497 0.352598965 -0.37401855  0.0556249097 0.0597242303  0.0806237161 0.105545945 0.106568739  0.394489795 0 0 0
0.23258929 0.0914062932 0.395956457  0.485099941 -0.763400316 0.0748583972 -0.419874012  0.0328340195 0.0383738317  0.157035753 0.201130792 0.194331691  0.650458753 0 0 0
0.265869647 0.0833405331 0.29760915  0.456321687 -0.48287788 0.664122462 -0.342842311  0.0545418486 0.0449464917  0.129122064 0.160601273 0.154228017  0.535768092 0 0 0
-0.224435255 -0.115067571 0.397996664  0.335139126 0.113155983 -0.737492621 0.575310469  0.0311117005 0.0457085222  0.152960181 0.187834725 0.183162972  0.356233656 0 0 0
-0.19444038 -0.0922448933 0.249364689  0.510519922 0.796447098 0.0884844139 -0.31178844  0.0856475011 0.0631171316  0.158298954 0.205548823 0.202332452  0.595645368 0 0 0
-0.00615938101 -0.0214164089 0.576384425  0.302139908 0.634734035 -0.290018439 0.649394751  0.0351681709 0.0674107596  0.201753587 0.255044252 0.24830997  0.998982012 0 0 0
-0.0035368111 -0.412497878 0.349499643  0.813433588 -0.371347308 0.446244717 -0.0359548107  0.00992478803 0.0241795462  0.0922913253 0.128072962 0.125058457  0.936878026 0 0 0
0.189327314 -0.0210402124 0.47354725  0.0352559648 -0.627561212 -0.370492488 -0.683856189  0.0360830389 0.0286853462  0.208554193 0.250484794 0.244868442  0.80545783 0 0 0
0.0135210557 0.389926642 0.432666779  0.75034833 0.214284882 -0.602743864 -0.166611105  0.0332942456 0.0555802546  0.185919926 0.241624296 0.23762992  0.484313607 0 0 0
-0.0127115333 -0.37643981 0.444574267  0.596658409 -0.41943711 0.44432348 -0.52023828  0.0919806808 0.0168422367  0.170747936 0.209037632 0.209362909  0.496614963 0 0 0
0.162599444 0.158091351 0.430765241  0.201183558 0.734181523 -0.320628792 -0.56364876  0.0181073658 0.0300391056  0.0973172709 0.118146598 0.115489922  0.933419645 0 0 0
-0.0187314749 -0.403412849 0.432955712  0.49400264 -0.5094859 0.622813165 -0.329377115  0.101713642 0.0401220694  0.182584748 0.240171239 0.239791438  0.502736807 0 0 0
-0.0044451938 -0.385648161 0.309403062  0.826422155 -0.408699989 0.324089259 -0.212030068  0.0358018205 0.0491772555  0.107494727 0.160341382 0.160419703  0.574931681 0 0 0
-0.0102222683 -0.29580617 0.445276231  0.495943308 -0.440585822 0.570915759 -0.483714402  0.132147491 0.0405925624  0.17479293 0.228629112 0.226767078  0.676797867 0 0 0
-0.100440964 0.13628532 0.478090525  0.513586044 0.50892359 -0.510062218 0.465899974  0.0287797097 0.0272787437  0.167449489 0.202026129 0.198267236  0.465611041 0 0 0
-0.27472353 -0.0246257968 0.307745963  0.595240295 -0.295271337 -0.66757369 0.335930318  0.0838366896 0.0774526522  0.167974412 0.211258858 0.206416607  0.720143497 0 0 0
-0.427514941 -0.0172670018 0.00114045024  0.717426419 0.0161570031 -0.0113690104 -0.696354151  0.232529983 0.103317991  0.250618309 0.199643105 0.136423409  0.253138304 0 0 0
-0.278537631 0.415527761 0.00112794375  0.60175854 -0.000169785053 -0.014017079 0.798555136  0.181279033 0.215183437  0.222204015 0.179949209 0.12941426  0.353888094 0 0 0
0.16093795 0.0927314982 0.410868883  0.61998409 0.421753705 -0.288167059 -0.595569849  0.0367052667 0.0423084609  0.167864561 0.204107329 0.204196349  0.452249169 0 0 0
0.198039085 -0.0416048542 0.443199128  0.0410622954 -0.749167681 0.0578745827 -0.658568382  0.030759044 0.0278039984  0.147670075 0.182220817 0.177978441  0.449649692 0 0 0
0.0189808123 0.481604099 0.48602733  0.607782602 -0.0867684633 0.787069499 0.0599439107  0.0194604732 0.0355401076  0.159687653 0.199173927 0.196008787  0.58958751 0 0 0
-0.084871538 0.265559882 0.391977996  0.682979286 0.655192077 0.089925915 0.310122639  0.0340447091 0.0432508849  0.157438233 0.195140764 0.189549342  0.365278184 0 0 0
0.196543738 -0.103361338 0.451956332  0.382959008 -0.342634261 0.657196939 -0.551395059  0.0329478942 0.0158133786  0.152852491 0.197232604 0.193941638  0.31408903 0 0 0
-0.0245218258 0.403040707 0.429264575  0.503125072 -0.495366037 -0.67197597 -0.223441064  0.10012608 0.045558054  0.150754347 0.195316538 0.193662986  0.402359784 0 0 0
-0.128404409 -0.174002126 0.455459088  0.28612259 -0.0828871131 -0.716332316 0.630976677  0.0521061569 0.0434982032  0.159122705 0.197608665 0.192625239  0.559839725 0 0 0
0.181640774 0.122489557 0.467571825  0.116287656 0.231737837 -0.567617595 0.781399488  0.0244094934 0.0331165157  0.188784674 0.23777087 0.232882693  0.664714992 0 0 0
0.228986397 -0.348321289 0.334674209  0.0187825672 0.735162258 -0.676354647 -0.0415713899  0.0444969907 0.0891894773  0.0339905694 0.0275466591 0.0155133177  0.245503604 0 0 0
-0.00677738432 -0.428084224 0.428105563  0.594991326 -0.486061901 0.569958985 -0.291334748  0.0496339537 0.0175252575  0.175559193 0.219829887 0.213681325  0.463933676 0 0 0
0.221297368 0.0785798281 0.460686713  0.0302294735 -0.816889405 -0.23936604 0.523910224  0.028278783 0.02517551  0.109465875 0.137204915 0.1370565  0.418046057 0 0 0
-0.0121527826 -0.362715423 0.425788522  0.650692701 -0.31312722 0.503973424 -0.47387889  0.0590958223 0.0175826866  0.189828977 0.246751919 0.24661088  0.300623447 0 0 0
0.22808145 0.119500086 0.420771241  0.480927706 0.0274609588 0.700193524 -0.526956797  0.0109809143 0.0143210869  0.15444392 0.189564317 0.18568185  0.537973464 0 0 0
-0.0286360327 -0.238794193 0.403673142  0.568056583 -0.676186919 0.30873397 -0.353222966  0.0739899799 0.024978945  0.176785976 0.223843604 0.219645247  0.453686416 0 0 0
0.00913216174 -0.416364968 0.33123827  0.76725632 -0.483046919 0.291454464 -0.305021018  0.0250193328 0.0492057912  0.109966926 0.150187507 0.146958888  0.473685116 0 0 0
0.0115290172 -0.278069079 0.24748607  0.695822775 -0.0473329127 0.705952525 0.123374671  0.0175876617 0.0742762387  0.106899373 0.142557815 0.140914634  0.632867217 0 0 0
-0.00607017567 -0.434048593 0.407387316  0.570913553 -0.59679085 0.138389394 -0.546577334  0.0264584105 0.0356731862  0.136666745 0.171750382 0.16869083  0.566996574 0 0 0
-0.180021539 -0.162870899 0.408163339  0.490851492 0.363715202 0.00244789268 -0.791688085  0.0344892442 0.0449969694  0.0746433362 0.0968058035 0.0988589004  0.35876894 0 0 0
0.235588506 0.0858459398 0.365985632  0.38327989 -0.648010314 -0.220414743 -0.620158434  0.0282159969 0.0349053815  0.161057085 0.198734686 0.193188205  0.479252666 0 0 0
-0.0063840705 -0.408539116 0.356044739  0.754106462 -0.497852713 0.359529704 -0.232818827  0.0163485091 0.0349244848  0.0967662334 0.134204581 0.131534383  0.652333856 0 0 0
0.193824515 0.156878784 0.415565938  0.0793004632 0.829926848 -0.071816206 -0.547517478  0.0231567994 0.0335250869  0.0908673033 0.113774225 0.112334512  0.648995399 0 0 0
-0.174463451 0.529539227 0.0145274242  0.488987118 0.0311417226 -0.0128256343 0.871640682  0.0926349536 0.123064026  0.206103057 0.178602263 0.138634071  0.194215879 0 0 0
0.0299834516 0.430166572 0.412109196  0.398208708 0.615724921 0.344659895 0.586107671  0.0390388966 0.0306421239  0.159548283 0.199800789 0.195506603  0.390894562 0 0 0
-0.261929184 0.00925035588 0.283037186  0.47326836 -0.522173166 -0.643962502 -0.297766179  0.0741500631 0.0540179834  0.180300787 0.217358708 0.215831324  0.549957335 0 0 0
0.0514975414 -0.213358164 0.308107764  0.271313995 0.669726849 0.488565445 -0.489038318  0.0348627903 0.0357755236  0.143317819 0.186884627 0.182326928  0.351606011 0 0 0
-0.0389265791 0.380137324 0.411824495  0.529215395 -0.575888515 -0.620201886 -0.0602769963  0.059255559 0.0293176994  0.129818127 0.173119411 0.172603115  0.363421023 0 0 0
0.282365054 -0.042666994 0.360562086  0.839753449 -0.174834296 0.212231025 -0.468193471  0.0297160689 0.0372350328  0.0718898326 0.0979323089 0.102968939  0.339058697 0 0 0
-0.174285665 -0.153142571 0.477024674  0.684290767 0.683243573 -0.223254874 -0.122807726  0.0340287164 0.0230381005  0.135859266 0.174265102 0.169212043  0.324313104 0 0 0
-0.208155796 -0.0673321858 0.460511178  0.72444278 0.0729888678 -0.676732838 0.10903246  0.0342650451 0.0281066559  0.157670796 0.195083499 0.191044539  0.529875159 0 0 0
-0.00830155052 -0.39516902 0.339469433  0.689379752 -0.489518374 0.256061435 -0.468572199  0.0215867944 0.0326693952  0.0994675457 0.140042037 0.137549236  0.401654094 0 0 0
0.00271330308 -0.309309155 0.230580971  0.802808762 -0.350334406 0.478572965 -0.0610896423  0.0139146456 0.0530961081  0.107880756 0.150533244 0.147943258  0.672315776 0 0 0
-0.0200575087 -0.401099682 0.39790234  0.817313969 -0.250926405 0.514499128 -0.0657617301  0.0638380051 0.0287629925  0.124346711 0.173112914 0.170361891  0.295785427 0 0 0
