ply
format ascii 1.0
element vertex 12
property float x
property float y
property float z
property float rot_w
property float rot_x
property float rot_y
property float rot_z
property float su
property float sv
property float albedo_r
property float albedo_g
property float albedo_b
property float opacity
property float beta
property float shape
property float power
end_header
0.1 0.1 0.5  1.0 0.0 0.0 0.0  0.1 0.1  0.1 0.1 0.1  1.0 0.0 0.0 0.0
0.1 -0.1 0.5  1.0 0.0 0.0 0.0  0.1 0.1  0.1 0.1 0.1  1.0 0.0 0.0 0.0
-0.1 0.1 0.5  1.0 0.0 0.0 0.0  0.1 0.1  0.1 0.1 0.1  1.0 0.0 0.0 0.0
-0.1 -0.1 0.5  1.0 0.0 0.0 0.0  0.1 0.1  0.1 0.1 0.1  1.0 0.0 0.0 0.0

0.25 0.25 0.0  1.0 0.0 0.0 0.0  0.1 0.1  0.1 0.1 0.1  1.0 0.0 0.0 0.0
-0.25 0.25 0.0  1.0 0.0 0.0 0.0  0.1 0.1  0.1 0.1 0.1  1.0 0.0 0.0 0.0
0.25 -0.25 0.0  1.0 0.0 0.0 0.0  0.1 0.1  0.1 0.1 0.1  1.0 0.0 0.0 0.0
-0.25 -0.25 0.0  1.0 0.0 0.0 0.0  0.1 0.1  0.1 0.1 0.1  1.0 0.0 0.0 0.0

-1.50000000 2.59808000 1.00000000  0.56478678 0.78359973 0.20996500 0.15133422  0.00100000 0.00100000  1.00000000 1.00000000 1.00000000  1.00000000 -1000.00000000 0.00000000 500.00000000
-1.50000000 -2.59808000 1.00000000  0.15133422 0.20996500 0.78359973 0.56478678  0.00100000 0.00100000  1.00000000 1.00000000 1.00000000  1.00000000 -1000.00000000 0.00000000 500.00000000
3.00000000 0.00000000 1.00000000  0.41345252 0.57363492 -0.57363492 -0.41345252  0.00100000 0.00100000  1.00000000 1.00000000 1.00000000  1.00000000 -1000.00000000 0.00000000 500.00000000
0.00000000 0.00000000 3.00000000  0.00000000 1.00000000 0.00000000 0.00000000  0.00100000 0.00100000  1.00000000 1.00000000 1.00000000  1.00000000 -1000.00000000 0.00000000 500.00000000