ply
format ascii 1.0
comment 2D Gaussian splats: pk, tu, tv, scales, diffuse albedo, opacity
element vertex 1
property float x          # pk.x
property float y          # pk.y
property float z          # pk.z
property float tu_x       # tangential axis u (unit)
property float tu_y
property float tu_z
property float tv_x       # tangential axis v (unit, orthonormal to tu)
property float tv_y
property float tv_z
property float su         # scale along tu
property float sv         # scale along tv
property float albedo_r   # diffuse BRDF albedo
property float albedo_g
property float albedo_b
property float opacity
property float beta
property float shape
end_header
0.246014384 -0.0599976853 0.817424774  0.291255534 0.828315914 0.47860536  -0.908348978 0.0824996829 0.409995079  0.251496166 0.304637313  0.738323629 0.738323629 0.738323748  1 0 0
