ply
format ascii 1.0
comment 2D Gaussian splats: pk, tu, tv, scales, diffuse albedo, opacity
element vertex 3
property float x          # pk.x
property float y          # pk.y
property float z          # pk.z
property float tu_x       # tangential axis u (unit)
property float tu_y
property float tu_z
property float tv_x       # tangential axis v (unit, orthonormal to tu)
property float tv_y
property float tv_z
property float su         # scale along tu
property float sv         # scale along tv
property float albedo_r   # diffuse BRDF albedo
property float albedo_g
property float albedo_b
property float opacity
property float beta
property float shape
end_header
-0.0509981662 -0.0603577979 1.04955435  0.989572823 -0.142217115 0.0228023529  0.12506257 0.926931083 0.353776902  0.225589558 0.478311926  0.99000001 0.98990941 0.99000001   0.994384289 -1.97338068 0
0.0383192152 -0.0252836775 0.765204966  0.864993095 0.210766271 0.4553729  -0.458374053 0.701126397 0.546182275  0.442631364 0.521257102  0.99000001 0.98990941 0.99000001   0.986919165 -3 0
-0.101211846 -0.117338091 1.05225575  0.299208373 -0.935340941 -0.188710853  0.911651552 0.221832573 0.345950812  0.380663574 0.448587805  0.99000001 0.98990941 0.99000001   1 -1.42233455 0