ply
format ascii 1.0
comment 2D Gaussian splats: pk, tu, tv, scales, diffuse albedo, opacity
element vertex 3
property float x          # pk.x
property float y          # pk.y
property float z          # pk.z
property float tu_x       # tangential axis u (unit)
property float tu_y
property float tu_z
property float tv_x       # tangential axis v (unit, orthonormal to tu)
property float tv_y
property float tv_z
property float su         # scale along tu
property float sv         # scale along tv
property float albedo_r   # diffuse BRDF albedo
property float albedo_g
property float albedo_b
property float opacity
property float beta
property float shape
end_header
-0.168499053 0.69250232 1.00850403  -0.690992296 0.500004768 0.522039175  -0.570734322 0.0658233538 -0.818492293  0.374980181 0.492992938  0.440209478 0.36902532 1  1 -0.513103068 0
0.086483568 0.531504989 0.946498692  -0.693044126 0.575242043 0.434495538  -0.496943861 0.0554102436 -0.866011918  0.496995211 0.494986445  0.493307233 0.394935966 1  1 -0.508901536 0
0.0775013044 0.283504277 1.06050527  -0.538341284 0.548825443 0.639514863  -0.547223449 0.349451035 -0.760546267  0.26300177 0.263002574  0.427012473 0.355209202 0.929077685  1 -0.48630181 0
