ply
format ascii 1.0
comment 2D Gaussian splats: pk, tu, tv, scales, diffuse albedo, opacity
element vertex 20
property float x          # pk.x
property float y          # pk.y
property float z          # pk.z
property float tu_x       # tangential axis u (unit)
property float tu_y
property float tu_z
property float tv_x       # tangential axis v (unit, orthonormal to tu)
property float tv_y
property float tv_z
property float su         # scale along tu
property float sv         # scale along tv
property float albedo_r   # diffuse BRDF albedo
property float albedo_g
property float albedo_b
property float opacity
end_header
-0.41 -0.43 1.57 0.40 0.83 0.39 -0.13 0.47 -0.87 0.01 0.01 1.00 0.79 0.98 1.00
0.18 -0.14 0.78 0.98 0.10 -0.18 -0.21 0.37 -0.90 0.01 0.03 0.86 0.28 0.88 1.00
0.01 0.47 1.01 0.43 0.78 -0.44 0.88 -0.28 0.37 0.01 0.04 1.00 0.87 0.87 1.00
-0.55 0.01 1.57 0.83 0.36 0.42 0.20 -0.90 0.38 0.06 0.03 0.77 0.96 0.90 1.00
-0.35 -0.25 1.03 -0.38 -0.23 0.89 -0.73 -0.51 -0.45 0.03 0.04 0.95 0.77 0.80 1.00
-0.05 -0.47 0.57 -0.94 -0.16 0.30 0.24 0.30 0.92 0.01 0.07 0.70 0.71 0.50 1.00
0.17 -0.34 1.04 0.42 0.59 0.69 0.40 0.56 -0.73 0.06 0.01 0.44 0.46 0.73 1.00
-0.29 0.10 0.60 0.31 0.06 0.95 -0.87 -0.39 0.31 0.02 0.02 0.80 0.48 0.93 1.00
0.28 0.44 0.37 0.26 0.89 -0.38 -0.90 0.08 -0.43 0.01 0.02 0.90 0.99 0.88 1.00
-0.18 0.31 0.69 0.61 -0.49 -0.61 0.09 0.82 -0.57 0.02 0.01 1.00 0.60 0.84 1.00
0.47 -0.50 1.28 0.62 -0.57 0.55 0.59 -0.13 -0.80 0.05 0.01 0.59 0.55 0.76 1.00
0.09 0.38 0.62 -0.62 0.63 -0.46 0.31 -0.34 -0.89 0.01 0.01 0.86 0.58 0.87 1.00
0.42 0.12 0.35 -0.56 -0.51 -0.66 0.74 0.06 -0.67 0.04 0.02 1.00 0.89 0.58 1.00
0.31 0.23 0.88 0.61 -0.77 0.21 0.02 0.28 0.96 0.03 0.07 0.80 1.00 0.49 1.00
-0.38 0.22 1.45 0.02 1.00 0.07 0.46 -0.08 0.88 0.03 0.02 1.00 0.74 0.89 1.00
-0.19 -0.45 1.60 0.17 0.98 0.01 -0.54 0.08 0.84 0.01 0.05 0.78 0.22 0.86 1.00
-0.46 -0.57 0.41 -0.73 0.18 -0.66 -0.01 0.96 0.27 0.01 0.01 0.57 0.95 0.85 1.00
0.57 0.48 0.76 0.06 0.07 -1.00 -0.74 -0.67 -0.09 0.05 0.01 1.00 0.68 0.95 1.00
-0.23 0.01 1.10 -0.97 0.00 -0.23 0.11 -0.88 -0.47 0.03 0.04 1.00 0.66 0.89 1.00
-0.54 -0.10 0.89 -0.33 0.58 -0.74 0.81 -0.23 -0.54 0.02 0.01 0.64 0.81 0.73 1.00
