ply
format ascii 1.0
comment 2D Gaussian splats: pk, tu, tv, scales, diffuse albedo, opacity
element vertex 10
property float x          # pk.x
property float y          # pk.y
property float z          # pk.z
property float tu_x       # tangential axis u (unit)
property float tu_y
property float tu_z
property float tv_x       # tangential axis v (unit, orthonormal to tu)
property float tv_y
property float tv_z
property float su         # scale along tu
property float sv         # scale along tv
property float albedo_r   # diffuse BRDF albedo
property float albedo_g
property float albedo_b
property float opacity
end_header
0.16 1.69 0.16 -0.55 -0.79 0.27 0.78 -0.60 -0.16 0.01 0.07 0.64 1.00 0.81 1.00
0.28 1.05 -0.44 0.12 -0.85 0.52 0.68 0.45 0.59 0.07 0.05 0.91 0.76 0.59 1.00
-0.21 1.77 -0.06 -0.86 -0.34 -0.39 -0.29 0.94 -0.17 0.04 0.07 1.00 0.80 0.70 1.00
0.14 1.26 -0.24 -0.81 0.48 -0.34 -0.32 -0.84 -0.43 0.06 0.01 0.50 0.87 0.51 1.00
-0.13 1.24 0.25 -0.97 -0.25 0.05 -0.13 0.32 -0.94 0.06 0.03 0.63 0.98 0.84 1.00
-0.02 0.65 0.03 -0.28 0.11 -0.95 -0.29 0.94 0.20 0.04 0.01 0.93 0.81 0.54 1.00
-0.29 0.36 0.42 -0.53 -0.80 0.28 0.17 -0.42 -0.89 0.01 0.04 0.66 0.55 0.88 1.00
0.19 0.49 0.43 -0.02 0.95 -0.30 -0.22 0.28 0.93 0.07 0.03 0.68 0.79 0.56 1.00
0.23 1.31 0.07 0.19 -0.44 -0.88 -0.70 -0.69 0.18 0.06 0.03 1.00 0.93 0.75 1.00
0.11 1.59 -0.46 0.66 -0.34 -0.67 0.50 0.86 0.05 0.06 0.09 0.86 1.00 0.70 1.00
