ply
format ascii 1.0
comment 2D Gaussian splats: pk, tu, tv, scales, diffuse albedo, opacity
element vertex 100
property float x          # pk.x
property float y          # pk.y
property float z          # pk.z
property float tu_x       # tangential axis u (unit)
property float tu_y
property float tu_z
property float tv_x       # tangential axis v (unit, orthonormal to tu)
property float tv_y
property float tv_z
property float su         # scale along tu
property float sv         # scale along tv
property float albedo_r   # diffuse BRDF albedo
property float albedo_g
property float albedo_b
property float opacity
end_header
-0.03 0.25 -0.15 -0.43 0.47 0.77 -0.82 -0.55 -0.13 0.05 0.05 0.64 0.60 0.87 1.00
-0.36 0.53 0.16 -0.74 0.54 0.39 -0.30 -0.79 0.53 0.05 0.06 0.34 0.26 0.83 1.00
-0.21 0.44 -0.14 0.08 0.74 0.67 -0.23 -0.64 0.73 0.05 0.05 0.43 0.53 0.49 1.00
0.47 0.01 -0.07 0.93 -0.36 0.04 0.00 0.13 0.99 0.05 0.07 0.77 0.22 0.90 1.00
-0.32 1.20 -0.00 -0.24 0.94 0.26 0.42 0.34 -0.84 0.06 0.05 0.23 0.26 0.56 1.00
-0.10 1.32 0.03 -0.44 -0.75 0.50 -0.75 -0.00 -0.66 0.06 0.05 0.69 0.14 0.36 1.00
0.07 1.12 -0.17 0.29 -0.47 -0.83 -0.94 -0.01 -0.33 0.05 0.05 0.03 0.48 0.41 1.00
-0.39 1.10 -0.20 -0.04 1.00 0.08 0.28 -0.07 0.96 0.05 0.05 0.23 0.08 0.54 1.00
-0.50 1.11 -0.35 -0.02 0.82 0.57 -0.41 -0.52 0.75 0.05 0.05 0.02 0.69 0.51 1.00
-0.01 0.81 -0.56 -0.31 0.44 -0.84 -0.84 0.28 0.46 0.05 0.06 0.09 0.67 0.89 1.00
0.02 0.07 -0.43 0.41 -0.09 -0.91 0.81 -0.43 0.40 0.05 0.06 0.33 0.84 0.27 1.00
0.49 0.43 -0.04 0.48 0.75 -0.46 0.75 -0.09 0.65 0.05 0.06 0.72 0.17 0.94 1.00
-0.02 0.82 -0.35 -0.21 0.30 -0.93 -0.49 0.79 0.37 0.05 0.05 0.78 0.09 0.15 1.00
0.03 0.55 0.47 -0.09 -0.86 -0.51 0.79 -0.37 0.48 0.05 0.06 0.42 0.27 0.74 1.00
-0.32 0.54 -0.26 0.60 0.45 0.66 -0.74 0.61 0.27 0.06 0.05 0.56 0.93 0.92 1.00
-0.03 0.01 -0.18 0.89 0.36 -0.29 -0.42 0.37 -0.83 0.05 0.05 0.97 0.10 0.40 1.00
-0.34 0.48 -0.54 -0.42 0.84 -0.34 0.72 0.09 -0.68 0.05 0.05 0.84 0.95 0.10 1.00
0.48 0.72 -0.34 -0.63 -0.31 0.72 0.43 0.63 0.65 0.05 0.05 0.30 0.45 0.42 1.00
0.12 0.63 0.47 0.84 -0.51 0.19 -0.28 -0.11 0.95 0.06 0.07 0.48 0.44 0.16 1.00
0.26 0.89 0.05 -0.82 0.02 0.58 0.49 0.56 0.67 0.05 0.06 0.02 0.83 0.23 1.00
-0.15 0.91 -0.38 0.79 0.16 0.59 0.08 0.93 -0.35 0.06 0.05 0.24 0.84 0.98 1.00
0.44 1.25 -0.34 -0.80 -0.44 0.42 0.60 -0.61 0.52 0.06 0.05 0.48 0.11 0.49 1.00
-0.00 0.45 -0.52 -0.04 -0.99 0.15 -0.54 0.15 0.83 0.07 0.06 0.65 0.38 0.87 1.00
0.60 0.80 0.46 -0.23 0.83 0.51 -0.96 -0.13 -0.23 0.05 0.05 0.33 0.20 0.95 1.00
-0.45 1.01 -0.23 0.87 -0.47 -0.15 0.48 0.71 0.52 0.07 0.05 0.68 0.48 0.08 1.00
0.55 0.34 0.35 -0.45 0.87 -0.21 0.17 0.31 0.94 0.05 0.05 0.19 0.84 0.28 1.00
-0.26 1.06 0.41 -0.07 -0.93 0.36 0.86 0.13 0.49 0.05 0.05 0.54 0.70 0.40 1.00
0.19 0.96 -0.52 -0.34 0.42 -0.84 0.91 0.38 -0.18 0.05 0.05 0.09 0.36 0.40 1.00
0.06 0.05 0.47 -0.77 0.08 -0.64 0.41 0.82 -0.39 0.07 0.05 0.24 0.17 0.97 1.00
0.17 0.60 -0.37 0.91 0.24 0.34 -0.01 -0.81 0.59 0.05 0.06 0.89 0.30 0.25 1.00
0.00 0.48 -0.19 0.61 0.10 0.79 0.75 0.24 -0.61 0.05 0.07 0.05 1.00 0.25 1.00
-0.40 1.08 0.40 0.60 0.79 0.11 0.76 -0.61 0.22 0.07 0.05 0.60 1.00 0.57 1.00
0.11 0.66 0.03 -0.04 0.28 -0.96 -0.46 -0.86 -0.23 0.05 0.07 0.91 0.34 0.20 1.00
0.20 0.42 -0.09 0.23 0.16 0.96 -0.22 -0.95 0.21 0.05 0.05 0.11 0.43 0.92 1.00
-0.17 0.98 -0.28 0.22 0.50 0.84 0.98 -0.11 -0.19 0.05 0.05 0.57 0.18 0.65 1.00
0.12 1.07 0.12 -0.72 -0.48 0.49 0.67 -0.67 0.33 0.05 0.07 0.80 0.30 0.89 1.00
-0.03 0.66 -0.27 0.24 0.94 0.23 -0.92 0.15 0.37 0.06 0.05 0.45 0.83 0.34 1.00
0.28 0.87 0.34 0.66 0.75 0.06 -0.42 0.31 0.85 0.05 0.06 0.72 0.00 0.66 1.00
-0.18 1.09 -0.06 -0.27 0.96 0.06 -0.85 -0.26 0.46 0.05 0.06 0.94 0.24 0.41 1.00
0.36 0.85 0.49 -0.44 0.90 0.03 -0.21 -0.07 -0.97 0.05 0.05 0.77 0.25 0.57 1.00
-0.16 0.63 0.45 0.15 -0.18 0.97 -0.04 0.98 0.19 0.05 0.05 0.54 0.68 0.64 1.00
-0.27 0.08 -0.30 0.40 -0.17 -0.90 0.67 0.72 0.16 0.05 0.06 0.78 0.10 0.80 1.00
0.16 0.86 0.38 -0.46 0.88 0.09 -0.48 -0.33 0.81 0.06 0.05 0.62 0.25 0.58 1.00
0.46 0.61 0.27 0.75 -0.63 0.22 -0.17 -0.50 -0.85 0.05 0.05 0.55 0.55 0.79 1.00
0.21 0.76 -0.42 -0.33 -0.94 -0.13 -0.47 0.04 0.89 0.06 0.05 0.91 0.78 0.60 1.00
0.52 1.20 -0.39 0.59 0.45 0.67 0.28 0.67 -0.69 0.05 0.06 0.55 0.47 0.65 1.00
-0.38 0.61 -0.35 -0.65 -0.41 0.64 -0.61 -0.21 -0.76 0.06 0.05 0.81 0.31 0.14 1.00
0.00 0.69 -0.60 -0.02 -0.62 -0.79 0.82 0.44 -0.37 0.06 0.05 0.14 0.70 0.75 1.00
0.17 0.60 -0.24 -0.70 0.34 0.63 -0.58 -0.78 -0.23 0.05 0.06 0.13 0.27 0.11 1.00
0.22 0.36 0.44 -0.77 -0.21 -0.60 0.16 -0.98 0.14 0.06 0.05 0.56 0.56 0.15 1.00
0.45 0.11 0.08 -0.10 0.76 0.65 -0.72 0.39 -0.57 0.05 0.05 0.67 0.71 0.25 1.00
0.15 0.23 0.32 0.67 -0.16 -0.72 0.71 0.41 0.57 0.05 0.05 0.03 0.79 0.12 1.00
0.21 1.28 0.45 -0.40 -0.90 -0.19 -0.49 0.38 -0.78 0.07 0.06 0.52 0.86 0.28 1.00
0.51 0.30 -0.36 0.47 0.19 -0.86 0.73 0.46 0.50 0.06 0.05 0.15 0.26 0.97 1.00
0.49 0.07 -0.33 0.25 -0.79 -0.56 -0.37 -0.61 0.69 0.05 0.05 0.93 0.48 0.89 1.00
0.14 1.06 0.09 0.36 0.17 0.92 0.91 0.16 -0.39 0.06 0.05 0.85 0.76 0.66 1.00
0.04 0.98 -0.07 -0.94 -0.32 -0.04 0.33 -0.93 -0.15 0.05 0.06 0.31 0.45 0.30 1.00
0.43 1.37 -0.20 0.70 -0.01 0.71 0.68 0.34 -0.66 0.05 0.05 0.69 0.18 0.98 1.00
0.08 1.21 -0.13 0.48 -0.49 0.72 -0.36 -0.86 -0.35 0.05 0.07 0.87 0.83 0.69 1.00
-0.35 1.36 0.32 -0.73 -0.47 0.50 0.67 -0.35 0.65 0.05 0.05 0.89 0.38 0.94 1.00
0.55 0.61 0.04 0.56 -0.81 -0.17 0.71 0.36 0.60 0.05 0.05 0.78 0.43 0.48 1.00
0.43 0.38 -0.20 0.40 -0.73 -0.55 -0.54 -0.68 0.50 0.05 0.05 0.03 0.97 0.91 1.00
0.51 0.80 -0.29 -0.86 -0.17 0.48 0.44 -0.71 0.55 0.06 0.05 0.94 0.39 0.46 1.00
0.25 0.12 0.45 0.43 -0.56 0.70 0.31 0.83 0.47 0.06 0.05 0.80 1.00 0.28 1.00
-0.57 0.35 0.37 -0.07 0.61 0.79 0.82 -0.41 0.39 0.05 0.05 0.42 0.05 0.29 1.00
0.22 0.76 -0.59 -0.32 0.92 0.23 -0.81 -0.39 0.42 0.05 0.06 0.35 0.60 0.20 1.00
-0.22 0.38 -0.35 -0.72 -0.54 -0.43 0.68 -0.66 -0.32 0.06 0.06 0.76 0.31 0.82 1.00
-0.03 0.04 -0.53 -0.38 0.41 -0.83 -0.85 -0.51 0.14 0.05 0.05 0.30 0.87 0.99 1.00
0.17 0.38 -0.07 -0.11 0.27 0.96 0.17 0.95 -0.25 0.05 0.07 0.75 0.00 0.17 1.00
0.21 0.85 0.03 0.04 0.17 -0.98 0.39 0.91 0.17 0.05 0.05 0.89 0.02 0.76 1.00
-0.53 0.49 0.34 -0.55 -0.65 -0.54 0.21 -0.72 0.65 0.05 0.05 0.21 0.53 0.82 1.00
-0.19 1.17 0.08 0.86 0.46 0.23 0.22 -0.74 0.64 0.06 0.05 0.77 0.01 0.60 1.00
0.32 0.31 -0.56 0.93 -0.24 0.28 0.09 -0.58 -0.81 0.06 0.05 0.34 0.13 0.85 1.00
-0.19 1.14 0.20 0.81 0.58 0.04 0.51 -0.73 0.45 0.05 0.06 0.37 0.82 0.39 1.00
0.17 0.36 -0.56 0.16 0.72 -0.68 -0.02 -0.68 -0.73 0.05 0.05 0.77 0.91 0.70 1.00
0.19 1.21 0.04 0.12 -0.24 0.96 -0.11 0.96 0.26 0.05 0.06 0.58 0.58 0.20 1.00
0.20 1.06 0.38 -0.68 -0.67 -0.31 -0.25 -0.18 0.95 0.06 0.07 0.08 0.58 0.82 1.00
0.15 1.25 0.03 -0.07 -0.74 0.67 0.28 -0.66 -0.70 0.05 0.05 0.42 0.50 0.48 1.00
-0.30 0.48 -0.35 0.63 0.63 0.46 0.48 0.15 -0.86 0.05 0.06 0.18 0.67 0.41 1.00
0.55 0.74 0.36 -0.28 -0.90 -0.32 0.65 0.07 -0.76 0.05 0.06 0.30 0.97 0.21 1.00
-0.09 0.06 0.09 0.79 0.58 -0.21 -0.15 -0.15 -0.98 0.05 0.05 0.53 0.43 0.87 1.00
-0.12 0.08 -0.45 0.37 0.93 0.08 -0.66 0.32 -0.68 0.06 0.06 0.90 0.61 0.87 1.00
0.49 1.32 -0.10 -0.24 0.95 0.21 -0.52 -0.31 0.79 0.05 0.05 0.51 0.20 0.51 1.00
-0.34 0.14 -0.01 -0.18 0.89 0.41 0.66 0.42 -0.62 0.05 0.05 0.91 0.76 0.24 1.00
0.23 0.28 -0.43 0.87 -0.11 0.47 -0.14 -0.99 0.04 0.07 0.06 0.99 0.16 0.84 1.00
-0.59 0.04 -0.20 0.76 -0.64 0.10 -0.41 -0.36 0.83 0.06 0.06 0.36 0.63 0.24 1.00
0.42 0.98 -0.43 0.36 0.15 0.92 0.10 -0.99 0.13 0.06 0.05 0.03 0.03 0.60 1.00
-0.37 0.46 0.01 -0.68 -0.43 -0.60 0.16 -0.88 0.46 0.05 0.05 0.66 0.23 0.14 1.00
0.49 0.37 -0.55 -0.37 -0.17 -0.91 -0.87 -0.28 0.40 0.05 0.06 0.74 0.61 0.53 1.00
-0.22 0.79 -0.53 0.22 -0.33 -0.92 -0.63 -0.77 0.12 0.05 0.05 0.38 0.19 0.77 1.00
-0.38 0.10 0.11 0.69 0.02 0.72 -0.47 0.78 0.42 0.06 0.05 0.96 0.41 0.94 1.00
-0.12 1.35 -0.41 0.78 0.44 0.44 -0.38 -0.22 0.90 0.05 0.05 0.12 0.25 0.28 1.00
0.33 0.81 -0.21 -0.96 0.13 0.25 -0.28 -0.21 -0.94 0.08 0.05 0.27 0.43 0.31 1.00
0.34 0.18 0.46 0.19 -0.97 0.12 -0.37 -0.18 -0.91 0.05 0.05 0.06 0.27 0.66 1.00
0.45 0.89 0.10 0.33 0.86 -0.38 -0.89 0.42 0.18 0.06 0.05 0.76 0.01 0.86 1.00
-0.48 0.88 0.46 0.97 -0.25 -0.02 -0.21 -0.84 0.49 0.06 0.06 0.50 0.23 0.99 1.00
0.40 1.26 -0.02 0.77 0.42 0.48 -0.40 -0.27 0.88 0.06 0.05 0.08 0.07 0.12 1.00
-0.59 0.00 -0.15 -0.85 0.51 -0.14 0.43 0.50 -0.75 0.07 0.06 0.40 0.61 0.71 1.00
-0.26 1.15 0.43 -0.56 0.71 -0.43 0.28 0.65 0.71 0.05 0.05 1.00 0.62 0.02 1.00
-0.54 0.98 0.47 -0.54 -0.69 -0.48 0.84 -0.41 -0.37 0.06 0.05 0.99 0.82 0.33 1.00
