ply
format ascii 1.0
comment 2D Gaussian splats: pk, tu, tv, scales, diffuse albedo, opacity
element vertex 20
property float x          # pk.x
property float y          # pk.y
property float z          # pk.z
property float tu_x       # tangential axis u (unit)
property float tu_y
property float tu_z
property float tv_x       # tangential axis v (unit, orthonormal to tu)
property float tv_y
property float tv_z
property float su         # scale along tu
property float sv         # scale along tv
property float albedo_r   # diffuse BRDF albedo
property float albedo_g
property float albedo_b
property float opacity
end_header
0.43 -0.18 1.41 -0.47 0.64 -0.60 0.88 0.38 -0.28 0.09 0.01 0.70 0.43 0.50 1.00
0.29 -0.51 1.09 0.83 -0.38 0.42 -0.32 -0.92 -0.21 0.03 0.06 0.54 0.82 0.90 1.00
-0.28 -0.42 1.14 -0.86 0.50 0.08 0.30 0.37 0.88 0.01 0.06 0.90 0.59 0.89 1.00
0.14 0.39 0.52 -0.54 -0.47 0.70 0.83 -0.43 0.35 0.01 0.02 0.91 0.49 0.76 1.00
-0.33 -0.44 0.62 -0.69 0.36 -0.62 0.44 -0.48 -0.76 0.10 0.11 0.66 0.44 0.67 1.00
0.23 -0.29 1.61 0.58 -0.80 0.14 -0.39 -0.12 0.91 0.02 0.10 0.69 0.97 0.57 1.00
0.51 -0.37 0.56 0.54 -0.63 -0.56 0.54 0.77 -0.34 0.01 0.01 0.87 0.27 0.61 1.00
-0.32 -0.54 0.57 0.35 -0.93 0.12 -0.09 -0.16 -0.98 0.04 0.15 1.00 0.82 1.00 1.00
0.21 0.38 1.31 -0.14 -0.72 -0.68 0.06 0.68 -0.73 0.01 0.01 1.00 0.69 1.00 1.00
0.10 0.32 1.09 0.97 -0.19 -0.13 0.00 0.58 -0.81 0.04 0.01 0.68 0.80 0.88 1.00
0.30 -0.45 0.79 -0.33 0.21 0.92 0.47 -0.81 0.35 0.08 0.02 0.55 0.65 0.86 1.00
0.16 -0.06 1.14 -0.07 0.90 -0.43 -0.38 0.37 0.85 0.01 0.07 0.70 0.45 0.54 1.00
-0.24 -0.12 0.33 0.46 -0.78 0.43 -0.87 -0.29 0.39 0.04 0.01 1.00 0.77 0.73 1.00
-0.56 -0.32 0.61 0.85 -0.45 -0.27 0.14 -0.30 0.94 0.01 0.10 0.68 0.79 0.66 1.00
-0.58 0.16 0.85 -0.81 -0.56 0.15 0.51 -0.81 -0.29 0.05 0.05 0.49 0.59 0.94 1.00
-0.22 -0.24 0.35 -0.40 0.91 -0.14 -0.71 -0.40 -0.57 0.07 0.01 0.54 1.00 0.95 1.00
0.53 0.06 1.61 -0.49 0.36 -0.79 0.81 0.51 -0.27 0.05 0.03 0.64 0.92 0.90 1.00
0.55 -0.55 0.83 0.52 -0.85 -0.06 0.56 0.39 -0.72 0.04 0.11 1.00 0.74 0.71 1.00
-0.46 0.12 0.90 0.83 0.55 0.14 0.40 -0.40 -0.83 0.01 0.03 0.91 1.00 0.62 1.00
0.55 0.23 1.26 0.47 -0.57 0.68 0.52 0.80 0.31 0.08 0.06 0.56 0.48 1.00 1.00
