ply
format ascii 1.0
comment 2D Gaussian splats: pk, tu, tv, scales, diffuse albedo, opacity
element vertex 100
property float x          # pk.x
property float y          # pk.y
property float z          # pk.z
property float tu_x       # tangential axis u (unit)
property float tu_y
property float tu_z
property float tv_x       # tangential axis v (unit, orthonormal to tu)
property float tv_y
property float tv_z
property float su         # scale along tu
property float sv         # scale along tv
property float albedo_r   # diffuse BRDF albedo
property float albedo_g
property float albedo_b
property float opacity
property float beta
property float shape
end_header
0.1581990 0.2186800 0.3825920 0.8123358 -0.5831900 0.0000000 0.2179200 0.3035447 -0.9275621 0.1500000 0.1500000 1.0000000 1.0000000 1.0000000 0.9000000 -0.2500000 0.0000000
0.2866700 0.0407620 0.2141870 0.1342584 -0.9909464 0.0000000 -0.4336856 -0.0587579 -0.8991464 0.1500000 0.1500000 1.0000000 1.0000000 1.0000000 0.9000000 -0.2500000 0.0000000
-0.0411450 0.0594630 0.1206020 0.9999490 0.0000000 -0.0100951 -0.0001499 -0.9998897 -0.0148482 0.1500000 0.1500000 1.0000000 1.0000000 1.0000000 0.9000000 -0.2500000 0.0000000
-0.0288140 0.2279810 0.4689590 0.9927162 0.1204765 -0.0000000 -0.0534091 0.4400867 -0.8963655 0.1500000 0.1500000 1.0000000 1.0000000 1.0000000 0.9000000 -0.2500000 0.0000000
-0.2191720 0.0565240 0.4763130 0.2423878 0.9701795 -0.0000000 -0.4400279 0.1099357 -0.8912292 0.1500000 0.1500000 1.0000000 1.0000000 1.0000000 0.9000000 -0.2500000 0.0000000
-0.2008800 -0.0511170 0.4928940 0.2484908 -0.9686342 0.0000000 0.4745612 0.1217427 -0.8717628 0.1500000 0.1500000 1.0000000 1.0000000 1.0000000 0.9000000 -0.2500000 0.0000000
0.2467640 0.0435430 0.1668330 0.1666083 -0.9860232 0.0000000 -0.7438977 -0.1256964 -0.6563663 0.1500000 0.1500000 1.0000000 1.0000000 1.0000000 0.9000000 -0.2500000 0.0000000
0.2430380 -0.1732090 0.2844030 -0.5772048 -0.8165994 0.0000000 0.1099191 -0.0776952 -0.9908992 0.1500000 0.1500000 1.0000000 1.0000000 1.0000000 0.9000000 -0.2500000 0.0000000
0.0726150 -0.1769690 0.4857910 -0.9284140 -0.3715474 0.0000000 0.2709569 -0.6770607 -0.6842303 0.1500000 0.1500000 1.0000000 1.0000000 1.0000000 0.9000000 -0.2500000 0.0000000
-0.2559880 0.0894760 0.3778520 0.3221014 0.9467052 -0.0000000 -0.3471153 0.1181004 -0.9303565 0.1500000 0.1500000 1.0000000 1.0000000 1.0000000 0.9000000 -0.2500000 0.0000000
0.0359590 0.2545930 0.1730130 0.9910561 -0.1334461 0.0000000 -0.0975692 -0.7246116 -0.6822157 0.1500000 0.1500000 1.0000000 1.0000000 1.0000000 0.9000000 -0.2500000 0.0000000
0.4078130 0.0183900 0.3938850 0.4076629 0.9131325 -0.0000000 0.1475731 -0.0658832 -0.9868544 0.1500000 0.1500000 1.0000000 1.0000000 1.0000000 0.9000000 -0.2500000 0.0000000
0.2233950 -0.0290720 0.1438090 -0.1273284 -0.9918606 0.0000000 -0.4088966 0.0524914 -0.9110698 0.1500000 0.1500000 1.0000000 1.0000000 1.0000000 0.9000000 -0.2500000 0.0000000
-0.1122580 -0.2189680 0.4366220 -0.8929430 0.4501697 0.0000000 -0.1887221 -0.3743434 -0.9078827 0.1500000 0.1500000 1.0000000 1.0000000 1.0000000 0.9000000 -0.2500000 0.0000000
-0.1120010 -0.2648100 0.2101750 -0.9247815 0.3804987 0.0000000 0.1814012 0.4408858 -0.8790411 0.1500000 0.1500000 1.0000000 1.0000000 1.0000000 0.9000000 -0.2500000 0.0000000
-0.1056960 0.2702400 0.2149260 0.9346781 0.3554951 -0.0000000 0.1534185 -0.4033725 -0.9020828 0.1500000 0.1500000 1.0000000 1.0000000 1.0000000 0.9000000 -0.2500000 0.0000000
-0.1724240 0.2076650 0.3810910 0.7705947 0.6373255 -0.0000000 -0.2373452 0.2869757 -0.9280691 0.1500000 0.1500000 1.0000000 1.0000000 1.0000000 0.9000000 -0.2500000 0.0000000
0.2907980 -0.0498780 0.2268170 -0.1617699 -0.9868285 0.0000000 -0.3041623 0.0498611 -0.9513144 0.1500000 0.1500000 1.0000000 1.0000000 1.0000000 0.9000000 -0.2500000 0.0000000
-0.1254020 -0.2538160 0.3456420 -0.8995950 0.4367252 0.0000000 -0.1372431 -0.2827023 -0.9493386 0.1500000 0.1500000 1.0000000 1.0000000 1.0000000 0.9000000 -0.2500000 0.0000000
0.2517860 0.1617830 0.2724200 0.5364493 -0.8439326 0.0000000 0.0676100 0.0429766 -0.9967858 0.1500000 0.1500000 1.0000000 1.0000000 1.0000000 0.9000000 -0.2500000 0.0000000
-0.3591830 0.0050010 0.2581940 0.0674479 0.9977228 -0.0000000 0.7136673 -0.0482452 -0.6988215 0.1500000 0.1500000 1.0000000 1.0000000 1.0000000 0.9000000 -0.2500000 0.0000000
-0.1064280 -0.2754840 0.2985400 -0.9356699 0.3528765 0.0000000 -0.0667586 -0.1770138 -0.9819416 0.1500000 0.1500000 1.0000000 1.0000000 1.0000000 0.9000000 -0.2500000 0.0000000
-0.2549600 -0.1415210 0.2165710 -0.4791231 0.8777477 0.0000000 0.3649606 0.1992156 -0.9094597 0.1500000 0.1500000 1.0000000 1.0000000 1.0000000 0.9000000 -0.2500000 0.0000000
-0.2285150 0.1200300 0.1730000 0.4590438 0.8884136 -0.0000000 0.6499865 -0.3358484 -0.6817062 0.1500000 0.1500000 1.0000000 1.0000000 1.0000000 0.9000000 -0.2500000 0.0000000
-0.1452200 -0.0645100 0.1238260 -0.3918538 0.9200275 0.0000000 0.9175003 0.3907775 -0.0740685 0.1500000 0.1500000 1.0000000 1.0000000 1.0000000 0.9000000 -0.2500000 0.0000000
-0.0935160 -0.0797240 0.5026490 -0.6478761 0.7617458 0.0000000 -0.7529872 -0.6404268 -0.1512079 0.1500000 0.1500000 1.0000000 1.0000000 1.0000000 0.9000000 -0.2500000 0.0000000
-0.0898710 -0.2407950 0.1726220 -0.9398512 0.3415842 0.0000000 0.2505354 0.6893351 -0.6797420 0.1500000 0.1500000 1.0000000 1.0000000 1.0000000 0.9000000 -0.2500000 0.0000000
0.2036180 -0.1531430 0.1699060 -0.5983552 -0.8012310 0.0000000 -0.5966560 0.4455796 -0.6674282 0.1500000 0.1500000 1.0000000 1.0000000 1.0000000 0.9000000 -0.2500000 0.0000000
0.0993820 0.0516810 0.5043180 0.4553618 -0.8903065 0.0000000 0.8797147 0.4499445 -0.1537920 0.1500000 0.1500000 1.0000000 1.0000000 1.0000000 0.9000000 -0.2500000 0.0000000
-0.3903120 -0.0032110 0.4646740 -0.1143256 -0.9934433 0.0000000 0.6131434 -0.0705607 -0.7868140 0.1500000 0.1500000 1.0000000 1.0000000 1.0000000 0.9000000 -0.2500000 0.0000000
-0.0094340 -0.2771130 0.3595590 -0.9994690 0.0325836 0.0000000 -0.0110576 -0.3391790 -0.9406569 0.1500000 0.1500000 1.0000000 1.0000000 1.0000000 0.9000000 -0.2500000 0.0000000
0.0466070 0.1607070 0.4947310 0.9648239 -0.2628969 0.0000000 0.2549236 0.9355624 -0.2444113 0.1500000 0.1500000 1.0000000 1.0000000 1.0000000 0.9000000 -0.2500000 0.0000000
-0.3179870 -0.0403510 0.2391530 -0.7374135 0.6754416 0.0000000 0.5408604 0.5904844 -0.5989976 0.1500000 0.1500000 1.0000000 1.0000000 1.0000000 0.9000000 -0.2500000 0.0000000
0.0981640 -0.1944520 0.1330170 -0.8986432 -0.4386803 0.0000000 -0.3934617 0.8060123 -0.4421901 0.1500000 0.1500000 1.0000000 1.0000000 1.0000000 0.9000000 -0.2500000 0.0000000
0.1452930 -0.2534360 0.3142360 -0.8704696 -0.4922221 0.0000000 0.1173689 -0.2075610 -0.9711555 0.1500000 0.1500000 1.0000000 1.0000000 1.0000000 0.9000000 -0.2500000 0.0000000
0.2447120 0.1114400 0.3828890 0.4079887 -0.9129870 0.0000000 0.3418651 0.1527701 -0.9272484 0.1500000 0.1500000 1.0000000 1.0000000 1.0000000 0.9000000 -0.2500000 0.0000000
0.3004520 0.0002840 0.4234240 0.9997926 0.0000000 -0.0203642 -0.0000809 -0.9999921 -0.0039712 0.1500000 0.1500000 1.0000000 1.0000000 1.0000000 0.9000000 -0.2500000 0.0000000
0.1420180 -0.2134010 0.1717660 -0.8353683 -0.5496906 0.0000000 -0.4054718 0.6161980 -0.6751983 0.1500000 0.1500000 1.0000000 1.0000000 1.0000000 0.9000000 -0.2500000 0.0000000
-0.0744440 0.0213280 0.5098930 0.2691406 0.9631009 -0.0000000 -0.9461058 0.2643913 -0.1870323 0.1500000 0.1500000 1.0000000 1.0000000 1.0000000 0.9000000 -0.2500000 0.0000000
0.1223790 0.2463210 0.3683190 0.8986068 -0.4387549 0.0000000 0.1552517 0.3179685 -0.9353037 0.1500000 0.1500000 1.0000000 1.0000000 1.0000000 0.9000000 -0.2500000 0.0000000
0.2388360 -0.1605280 0.2096530 -0.5529669 -0.8332032 0.0000000 -0.4014421 0.2664227 -0.8762780 0.1500000 0.1500000 1.0000000 1.0000000 1.0000000 0.9000000 -0.2500000 0.0000000
-0.3971020 -0.0189870 0.4639550 -0.7099966 -0.7042051 0.0000000 0.3871031 -0.3902867 -0.8353607 0.1500000 0.1500000 1.0000000 1.0000000 1.0000000 0.9000000 -0.2500000 0.0000000
-0.1791830 0.1330150 0.4846950 0.5932426 0.8050237 -0.0000000 -0.4304461 0.3172068 -0.8450420 0.1500000 0.1500000 1.0000000 1.0000000 1.0000000 0.9000000 -0.2500000 0.0000000
0.0158460 0.2157250 0.1327800 0.9976471 -0.0685588 0.0000000 -0.0621969 -0.9050700 -0.4206897 0.1500000 0.1500000 1.0000000 1.0000000 1.0000000 0.9000000 -0.2500000 0.0000000
-0.1972130 -0.0633520 0.1296480 -0.2975438 0.9547082 0.0000000 0.9268750 0.2888693 -0.2397027 0.1500000 0.1500000 1.0000000 1.0000000 1.0000000 0.9000000 -0.2500000 0.0000000
-0.3171090 0.0448780 0.2407200 0.7895020 0.6137479 -0.0000000 0.4759641 -0.6122621 -0.6313424 0.1500000 0.1500000 1.0000000 1.0000000 1.0000000 0.9000000 -0.2500000 0.0000000
-0.1481390 -0.2504190 0.2158370 -0.8640227 0.5034528 0.0000000 0.2130924 0.3657079 -0.9060073 0.1500000 0.1500000 1.0000000 1.0000000 1.0000000 0.9000000 -0.2500000 0.0000000
0.2076450 0.0511680 0.4933790 0.2163624 -0.9763131 0.0000000 0.8497293 0.1883099 -0.4924424 0.1500000 0.1500000 1.0000000 1.0000000 1.0000000 0.9000000 -0.2500000 0.0000000
0.1424860 0.0972850 0.4934430 0.5549131 -0.8319083 0.0000000 0.7979261 0.5322457 -0.2828931 0.1500000 0.1500000 1.0000000 1.0000000 1.0000000 0.9000000 -0.2500000 0.0000000
0.2890530 0.0746160 0.2726990 0.2421940 -0.9702278 0.0000000 0.0792414 0.0197807 -0.9966592 0.1500000 0.1500000 1.0000000 1.0000000 1.0000000 0.9000000 -0.2500000 0.0000000
-0.4184720 -0.0076170 0.4865370 -0.4327796 -0.9014997 0.0000000 0.8251077 -0.3961064 -0.4028610 0.1500000 0.1500000 1.0000000 1.0000000 1.0000000 0.9000000 -0.2500000 0.0000000
-0.4468450 -0.0228390 0.4586470 -0.8468413 0.5318457 0.0000000 0.2421583 0.3855811 -0.8903295 0.1500000 0.1500000 1.0000000 1.0000000 1.0000000 0.9000000 -0.2500000 0.0000000
-0.0204890 -0.0920550 0.1210420 0.9999856 0.0000000 -0.0053647 0.0001365 -0.9996761 0.0254476 0.1500000 0.1500000 1.0000000 1.0000000 1.0000000 0.9000000 -0.2500000 0.0000000
0.0530810 0.2914910 0.2311440 0.9851966 -0.1714284 0.0000000 -0.0448407 -0.2576989 -0.9651842 0.1500000 0.1500000 1.0000000 1.0000000 1.0000000 0.9000000 -0.2500000 0.0000000
-0.2367050 -0.1710230 0.2164030 -0.5825629 0.8127856 0.0000000 0.3391081 0.2430552 -0.9088069 0.1500000 0.1500000 1.0000000 1.0000000 1.0000000 0.9000000 -0.2500000 0.0000000
0.1743300 -0.1832950 0.4214180 -0.7247155 -0.6890482 0.0000000 0.2830079 -0.2976572 -0.9117602 0.1500000 0.1500000 1.0000000 1.0000000 1.0000000 0.9000000 -0.2500000 0.0000000
-0.1764940 -0.2387260 0.2294620 -0.8062389 0.5915901 0.0000000 0.1658901 0.2260807 -0.9598792 0.1500000 0.1500000 1.0000000 1.0000000 1.0000000 0.9000000 -0.2500000 0.0000000
0.2254460 0.0488060 0.4672620 0.2048837 -0.9787863 0.0000000 0.4320872 0.0904463 -0.8972848 0.1500000 0.1500000 1.0000000 1.0000000 1.0000000 0.9000000 -0.2500000 0.0000000
0.0606710 0.2543940 0.1772280 0.9745416 -0.2242068 0.0000000 -0.1601527 -0.6961228 -0.6998315 0.1500000 0.1500000 1.0000000 1.0000000 1.0000000 0.9000000 -0.2500000 0.0000000
-0.0419320 -0.1875380 0.4839970 -0.9784223 0.2066151 0.0000000 -0.1388356 -0.6574535 -0.7405940 0.1500000 0.1500000 1.0000000 1.0000000 1.0000000 0.9000000 -0.2500000 0.0000000
0.2624450 0.1458140 0.2589590 0.4802497 -0.8771318 0.0000000 -0.0030147 -0.0016506 -0.9999941 0.1500000 0.1500000 1.0000000 1.0000000 1.0000000 0.9000000 -0.2500000 0.0000000
-0.1471270 0.2305060 0.3716640 0.8453381 0.5342317 -0.0000000 -0.1919024 0.3036555 -0.9332560 0.1500000 0.1500000 1.0000000 1.0000000 1.0000000 0.9000000 -0.2500000 0.0000000
0.0552560 -0.1736060 0.1258520 -0.9562669 -0.2924953 0.0000000 -0.2904413 0.9495516 -0.1183027 0.1500000 0.1500000 1.0000000 1.0000000 1.0000000 0.9000000 -0.2500000 0.0000000
0.3651710 0.0302480 0.2884490 0.8763002 0.4817654 -0.0000000 -0.2140710 0.3893813 -0.8958548 0.1500000 0.1500000 1.0000000 1.0000000 1.0000000 0.9000000 -0.2500000 0.0000000
0.2643510 0.0421610 0.1831530 0.1504391 -0.9886193 0.0000000 -0.6723873 -0.1023178 -0.7330937 0.1500000 0.1500000 1.0000000 1.0000000 1.0000000 0.9000000 -0.2500000 0.0000000
0.0637390 -0.1936280 0.1290260 -0.9526933 -0.3039332 0.0000000 -0.2966329 0.9298103 -0.2178570 0.1500000 0.1500000 1.0000000 1.0000000 1.0000000 0.9000000 -0.2500000 0.0000000
-0.3655730 0.0146720 0.4059030 0.2185439 -0.9758271 0.0000000 0.3467883 0.0776659 -0.9347224 0.1500000 0.1500000 1.0000000 1.0000000 1.0000000 0.9000000 -0.2500000 0.0000000
0.1206350 -0.0169000 0.5027690 -0.1329916 -0.9911172 0.0000000 0.9795902 -0.1314448 -0.1520698 0.1500000 0.1500000 1.0000000 1.0000000 1.0000000 0.9000000 -0.2500000 0.0000000
-0.3264790 0.0187580 0.2363410 0.3547592 0.9349577 -0.0000000 0.8039831 -0.3050624 -0.5104391 0.1500000 0.1500000 1.0000000 1.0000000 1.0000000 0.9000000 -0.2500000 0.0000000
-0.2258810 -0.1171110 0.4184270 -0.4542916 0.8908530 0.0000000 -0.3632837 -0.1852570 -0.9130744 0.1500000 0.1500000 1.0000000 1.0000000 1.0000000 0.9000000 -0.2500000 0.0000000
-0.1328650 -0.2150630 0.1686810 -0.8536195 0.5208970 0.0000000 0.3907602 0.6403578 -0.6612476 0.1500000 0.1500000 1.0000000 1.0000000 1.0000000 0.9000000 -0.2500000 0.0000000
0.1281510 0.1279770 0.4912510 0.7066118 -0.7076014 0.0000000 0.6632143 0.6622867 -0.3486016 0.1500000 0.1500000 1.0000000 1.0000000 1.0000000 0.9000000 -0.2500000 0.0000000
0.0411610 -0.2152760 0.4889080 -0.9836465 -0.1801097 0.0000000 0.1167180 -0.6374404 -0.7616080 0.1500000 0.1500000 1.0000000 1.0000000 1.0000000 0.9000000 -0.2500000 0.0000000
-0.0296970 0.0490650 0.1203210 0.9999786 0.0000000 -0.0065394 -0.0000716 -0.9999401 -0.0109428 0.1500000 0.1500000 1.0000000 1.0000000 1.0000000 0.9000000 -0.2500000 0.0000000
0.2055320 -0.0294940 0.4855200 0.1358260 0.9907327 -0.0000000 0.2720701 -0.0372999 -0.9615542 0.1500000 0.1500000 1.0000000 1.0000000 1.0000000 0.9000000 -0.2500000 0.0000000
-0.0112740 0.2419720 0.4421490 0.9989601 0.0455937 -0.0000000 -0.0192019 0.4207140 -0.9069901 0.1500000 0.1500000 1.0000000 1.0000000 1.0000000 0.9000000 -0.2500000 0.0000000
0.2791100 0.0985130 0.2971900 0.3249490 -0.9457315 0.0000000 0.1746198 0.0599986 -0.9828062 0.1500000 0.1500000 1.0000000 1.0000000 1.0000000 0.9000000 -0.2500000 0.0000000
-0.2800590 0.1052870 0.2704210 0.3442693 0.9388710 -0.0000000 -0.0634592 0.0232695 -0.9977131 0.1500000 0.1500000 1.0000000 1.0000000 1.0000000 0.9000000 -0.2500000 0.0000000
0.1730680 0.2330480 0.2131270 0.8050178 -0.5932506 0.0000000 -0.2660552 -0.3610264 -0.8937978 0.1500000 0.1500000 1.0000000 1.0000000 1.0000000 0.9000000 -0.2500000 0.0000000
-0.0795200 0.2691260 0.1990740 0.9614917 0.2748338 -0.0000000 0.1572157 -0.5500107 -0.8202264 0.1500000 0.1500000 1.0000000 1.0000000 1.0000000 0.9000000 -0.2500000 0.0000000
-0.1322230 -0.1180340 0.4921580 -0.6618354 0.7496492 0.0000000 -0.7099692 -0.6268035 -0.3210313 0.1500000 0.1500000 1.0000000 1.0000000 1.0000000 0.9000000 -0.2500000 0.0000000
0.1217120 -0.0550740 0.5009540 -0.4065027 -0.9136496 0.0000000 0.9018879 -0.4012697 -0.1599398 0.1500000 0.1500000 1.0000000 1.0000000 1.0000000 0.9000000 -0.2500000 0.0000000
0.2188700 -0.1713030 0.1945160 -0.6135174 -0.7896812 0.0000000 -0.4796808 0.3726725 -0.7943686 0.1500000 0.1500000 1.0000000 1.0000000 1.0000000 0.9000000 -0.2500000 0.0000000
-0.0091890 -0.0314070 0.1201830 0.9999980 0.0000000 -0.0019910 0.0000140 -0.9999753 0.0070270 0.1500000 0.1500000 1.0000000 1.0000000 1.0000000 0.9000000 -0.2500000 0.0000000
0.0843150 -0.2511400 0.3937170 -0.9506792 -0.3101760 0.0000000 0.1195629 -0.3664563 -0.9227212 0.1500000 0.1500000 1.0000000 1.0000000 1.0000000 0.9000000 -0.2500000 0.0000000
-0.3363540 -0.0265230 0.2432150 -0.4327205 0.9015281 0.0000000 0.7280672 0.3494618 -0.5897411 0.1500000 0.1500000 1.0000000 1.0000000 1.0000000 0.9000000 -0.2500000 0.0000000
-0.1203520 -0.2217100 0.1678640 -0.8819117 0.4714147 0.0000000 0.3548473 0.6638402 -0.6583309 0.1500000 0.1500000 1.0000000 1.0000000 1.0000000 0.9000000 -0.2500000 0.0000000
-0.0829660 -0.0261750 0.1208940 0.9997511 0.0000000 -0.0223085 0.0001517 -0.9999769 0.0067983 0.1500000 0.1500000 1.0000000 1.0000000 1.0000000 0.9000000 -0.2500000 0.0000000
0.0294240 0.1546860 0.1237320 0.9845057 -0.1753526 0.0000000 -0.1748897 -0.9819072 -0.0726080 0.1500000 0.1500000 1.0000000 1.0000000 1.0000000 0.9000000 -0.2500000 0.0000000
-0.3526650 -0.0001580 0.2508100 -0.0022953 0.9999974 0.0000000 0.7643452 0.0017544 -0.6448049 0.1500000 0.1500000 1.0000000 1.0000000 1.0000000 0.9000000 -0.2500000 0.0000000
0.1271380 0.2015300 0.1564760 0.8474513 -0.5308731 0.0000000 -0.4050159 -0.6465411 -0.6464880 0.1500000 0.1500000 1.0000000 1.0000000 1.0000000 0.9000000 -0.2500000 0.0000000
-0.1362920 0.0696870 0.4977280 0.4485065 0.8937796 -0.0000000 -0.8774110 0.4402926 -0.1905056 0.1500000 0.1500000 1.0000000 1.0000000 1.0000000 0.9000000 -0.2500000 0.0000000
0.1773540 -0.2095890 0.3691580 -0.7643706 -0.6447772 0.0000000 0.2294471 -0.2720050 -0.9345412 0.1500000 0.1500000 1.0000000 1.0000000 1.0000000 0.9000000 -0.2500000 0.0000000
0.2342420 0.0848860 0.4288020 0.3330206 -0.9429196 0.0000000 0.3913618 0.1382213 -0.9097971 0.1500000 0.1500000 1.0000000 1.0000000 1.0000000 0.9000000 -0.2500000 0.0000000
-0.2611230 0.0760870 0.3744340 0.2721907 0.9622433 -0.0000000 -0.3485786 0.0986028 -0.9320786 0.1500000 0.1500000 1.0000000 1.0000000 1.0000000 0.9000000 -0.2500000 0.0000000
0.0361220 -0.0182460 0.5577180 -0.4432102 -0.8964177 0.0000000 -0.5950495 0.2942066 -0.7479028 0.1500000 0.1500000 1.0000000 1.0000000 1.0000000 0.9000000 -0.2500000 0.0000000
0.1681160 0.0406060 0.4931650 0.2137112 -0.9768969 0.0000000 0.9343789 0.2044097 -0.2918095 0.1500000 0.1500000 1.0000000 1.0000000 1.0000000 0.9000000 -0.2500000 0.0000000
-0.0097360 0.2847310 0.2061670 0.9994795 0.0322592 -0.0000000 0.0165304 -0.5121576 -0.8587324 0.1500000 0.1500000 1.0000000 1.0000000 1.0000000 0.9000000 -0.2500000 0.0000000
-0.1505590 0.2579400 0.2407030 0.8666237 0.4989623 -0.0000000 0.0824505 -0.1432044 -0.9862527 0.1500000 0.1500000 1.0000000 1.0000000 1.0000000 0.9000000 -0.2500000 0.0000000
-0.2021310 0.0582150 0.4947470 -0.9999865 0.0000000 0.0051960 -0.0000162 -0.9999951 -0.0031200 0.1500000 0.1500000 1.0000000 1.0000000 1.0000000 0.9000000 -0.2500000 0.0000000
