ply
format ascii 1.0
comment Quaternion surfels: position, rotation quaternion, scales, diffuse albedo, opacity
comment Two intersecting soft splats used by the realtime viewer's default scene
element vertex 3
property float x
property float y
property float z
property float rot_w
property float rot_x
property float rot_y
property float rot_z
property float su
property float sv
property float albedo_r
property float albedo_g
property float albedo_b
property float opacity
property float beta
property float shape
property float power
end_header
-0.03434051 -0.05907559 0.04177847  0.73611573 0.61048514 0.18659666 0.22499604  1.810000 0.483000  1.00 0.28 0.78  0.90 -1.0 0.0 0.0
-0.19112302 -0.14047603 0.14889739  0.58540276 0.72777558 -0.17828376 0.30961463  1.453444 0.140000  0.28 1.00 0.28  0.92 -1.0 0.0 0.0
 0.00000000  0.00000000 1.50000000  0.00000000 1.00000000 0.00000000 0.00000000  0.001000 0.001000  1.00 1.00 1.00  1.00 -1000.0 0.0 200.0
