ply
format ascii 1.0
comment Quaternion surfels: position, rotation quaternion, scales, diffuse albedo, opacity
element vertex 3
property float x
property float y
property float z
property float rot_w
property float rot_x
property float rot_y
property float rot_z
property float su
property float sv
property float albedo_r
property float albedo_g
property float albedo_b
property float opacity
property float beta
property float shape
property float power
end_header

0.0 0.0 0.6   1.0 0.0 0.0 0.0   1.0 1.0     0.5 1.0 1.0   1.0  -0.0   0.0  0.0

0.0 0.5 1.99  0.0985376 0.9951333 0.0 0.0   0.001 0.001  1.0 1.0 1.0  1.0  -500.0 0.0  50.0

0.0 -0.5 1.99 0.0985376 0.9951333 0.0 0.0   0.001 0.001  1.0 1.0 1.0  1.0  -500.0 0.0  50.0
