ply
format ascii 1.0
comment Volume-initialized Gaussian surfels
comment Includes one emissive point at (0, 0, 2.2)
element vertex 6
property float x
property float y
property float z
property float tu_x
property float tu_y
property float tu_z
property float tv_x
property float tv_y
property float tv_z
property float su
property float sv
property float albedo_r
property float albedo_g
property float albedo_b
property float opacity
property float beta
property float shape
property float power
end_header

-0.1  0.1 0.0  1.0 0.0 0.0  0.0 1.0 0.0  0.02 0.02 0.765167 0.814442 0.714665 1.000000 -0.000000 0.000000 0.000000
-0.1  -0.1 0.0  1.0 0.0 0.0  0.0 1.0 0.0  0.02 0.02 0.765167 0.814442 0.714665 1.000000 -0.000000 0.000000 0.000000
0.1  -0.1 0.0  1.0 0.0 0.0  0.0 1.0 0.0  0.02 0.02 0.765167 0.814442 0.714665 1.000000 -0.000000 0.000000 0.000000
0.1  0.1 0.0  1.0 0.0 0.0  0.0 1.0 0.0  0.02 0.02 0.765167 0.814442 0.714665 1.000000 -0.000000 0.000000 0.000000

0.5000000 -0.8000000 2.2000000 1.0000000 -0.0000000 0.0000000 0.0000000 -1.0000000 -0.0000000 0.5000000 0.5000000 1.0000000 1.0000000 1.0000000 1.0000000 0.0000000 0.0000000 30.0000000
-0.5000000 0.8000000 2.2000000 1.0000000 -0.0000000 0.0000000 0.0000000 -1.0000000 -0.0000000 0.5000000 0.5000000 1.0000000 1.0000000 1.0000000 1.0000000 0.0000000 0.0000000 30.0000000
